<svg id="Layer_1" data-name="Layer 1" xmlns="http://www.w3.org/2000/svg" viewBox="0 0 563.39 439.78"><defs><style>.cls-1{fill:#030304;}.cls-2,.cls-22{fill:#fff;}.cls-3{fill:#7389c4;}.cls-4{fill:#721611;stroke:#1d1d1b;}.cls-22,.cls-4{stroke-miterlimit:10;}.cls-5{fill:#e32523;}.cls-6{fill:#5e548a;}.cls-7{fill:#7489c4;}.cls-8{fill:#512247;}.cls-9{fill:#fdfdfd;}.cls-10{fill:#a03d53;}.cls-11{fill:#84344f;}.cls-12{fill:#692b4c;}.cls-13{fill:#752f4d;}.cls-14{fill:#cf92a2;}.cls-15{fill:#632949;}.cls-16{fill:#7389c2;}.cls-17{fill:#7285bf;}.cls-18{fill:#141415;}.cls-19{fill:#151616;}.cls-20{fill:#fbfbfb;}.cls-21{fill:#f7f6f6;}.cls-22{stroke:#1d1e1c;stroke-width:2px;}</style></defs><title>1</title><path class="cls-1" d="M1090.56,388s-9.74,18.4-14.25,69.89c0,0,5.64,13.59-4.85,19.6,0,0-19.39,4-8.43-19.28,0,0,3.19-51,17.41-85.91S1090.56,388,1090.56,388Z" transform="translate(-630.46 -46.5)"/><path class="cls-1" d="M1139.17,396.53s-9.74,18.4-14.25,69.89c0,0,5.64,13.59-4.84,19.6,0,0-19.39,4-8.44-19.28,0,0,3.19-51,17.41-85.91S1139.17,396.53,1139.17,396.53Z" transform="translate(-630.46 -46.5)"/><path class="cls-1" d="M1106.78,334.54s20.53,3.47,64.14,31.21c0,0,7.35,12.75,18.5,8.09,0,0,15-12.95-10.17-18.43,0,0-42.43-28.5-78.77-38.45S1106.78,334.54,1106.78,334.54Z" transform="translate(-630.46 -46.5)"/><path class="cls-1" d="M982.2,248.65a54.48,54.48,0,0,1,2.61-10c1-2.94,2.46-5.78,2.26-9-.76-12.38,4.07-22.91,11.74-32a33.51,33.51,0,0,0,4.58-7c3-2,6.08-4,9-6.24a60.92,60.92,0,0,0,9.78-8.77c10.84-5.89,23-7,35.17-7.63,13.92-.77,27.19,2.92,39.91,8.08,6.63,2.7,13,5.25,20.35,5,3.09-.1,6.1,1.28,9,2.39,7.22,2.7,13.31,7.12,18.89,12.32,9.4,9,14.15,20.19,15.41,33,.37,3.73-.48,7.53.55,11.24.7,2.87,1.8,5.63,2.3,8.57,5.06,29.86-9.3,61.09-35.35,76.88-8,4.87-8.39,3.68-1.65,10.9a360.76,360.76,0,0,1,35.3,43.7c.44.65-.52-.42,0,0a45,45,0,0,1,1.62,10.67,5.66,5.66,0,0,1-5.66,5.58c-28.89,0-52.94-.53-82.17-.56a4.38,4.38,0,0,1-4-2.66c-1.88-4.43-5.51-13-6.75-15.62-1.95-4.18-4.31-8.14-6.57-12.15a7.09,7.09,0,0,0-6.32-4c-4.49-.17-8.86-.75-12-4.6-1.12-1.36-3-1.13-4.63-1.28-6.36-.58-12.74-.89-19.11-1.08a157,157,0,0,0-10.21-14.1h0a64.09,64.09,0,0,0,20.92.55c3-.47,4.65-4.85,3-7.27-4.52-6.47-11-10-17.57-13.66l-.81-.57a4,4,0,0,0-2.66-2.1,47.07,47.07,0,0,0-6.53-5.4l-.24-.23c-2.08-2.88-3.49-6.12-5.47-9.05-2.85-4.22-6.15-8.07-8.67-12.52-.61-1.09-1.22-2.17-1.84-3.23l-.06-.15a67.34,67.34,0,0,1-4.06-38Z" transform="translate(-630.46 -46.5)"/><path class="cls-2" d="M1132.9,192.85c-24.9-17.1-63.39.22-67,30.08-.33,2.69.51,4.12,2.62,5.66a95.18,95.18,0,0,1,33,42.66c.91,2.29,1.76,4.33,4.82,3.51,16.18-.06,34.69-18.33,37.84-36.45,2.51-14.4-.88-27.36-7.09-40A16,16,0,0,0,1132.9,192.85Z" transform="translate(-630.46 -46.5)"/><path class="cls-2" d="M1064.8,323.43c-18.6-11.78-33-27-39.77-48.44a87.38,87.38,0,0,1-4.46-25.16c0-2.79-.52-3.51-3.62-3-9.3,1.55-18.05.38-24.77-7.37-9.34,21.36-3.32,60.69,32.77,80.89,10.9,4.62,22.34,5.95,34.06,5.42C1061.12,325.69,1063.77,326.4,1064.8,323.43Z" transform="translate(-630.46 -46.5)"/><path class="cls-2" d="M1054.05,182.12c-2.21-5.06-6.57-6.76-11.58-6.88-11.59-.27-21.06,4.8-29.1,12.59a93.84,93.84,0,0,0-16.64,21.94,38.48,38.48,0,0,0-3.65,9.12c-1.84,7.3-2,14.6,4.12,20.16,6.47,5.87,14.28,4.59,22,3.07,2-.4,1.83-2.23,2.24-3.45,3.4-10.16,10.39-16.1,20.83-18.15,4.42-1.52,5.91-5.68,7.59-9.26C1054.18,202.05,1056.64,192.41,1054.05,182.12Z" transform="translate(-630.46 -46.5)"/><path class="cls-3" d="M1064.8,323.43c-9.16,2.27-18.24.67-27.3-.7-4.21-.64-8.37-1.57-12.55-2.37,11.93,7.55,25.23,11.29,39,12.69a96.48,96.48,0,0,0,51.94-8.67c25.87-12.3,40.16-32.67,42.34-61.24.32-4.13-.42-8.34-1.2-12.75C1149.59,264,1138,272.32,1124,277.72c-5.48,8.65-11.67,16.8-17.71,25-.34,1.1-.7,2.19-1,3.29-5.19,17.84-20.53,25.32-37.74,18.38C1066.63,324.08,1065.71,323.77,1064.8,323.43Z" transform="translate(-630.46 -46.5)"/><path class="cls-4" d="M1117.14,389.29c10.86,0,18.58.54,29.43.46,1.42,0,8.77,1.13,9.56-.18,1-1.69-3.24-8.64-4.1-9.83-9-12.32-15.09-25.73-25.07-37.24-1.44-1.66,5.5,4.69,8,2.87,2.38-1.71,11.24-11.14,10-12.77s-16.16-6.91-18.3-6.08c-11.27,4.32-38.84,13.22-51,12.68-2-.09-3.23.35-2.36,2.78a1.71,1.71,0,0,1-1,2.41c-.91.24-1.33-.69-1.71-1.42-1.61-3.07-4.46-4.34-7.62-4.78-5.82-.8-11.67-1.58-17.53-1.94-4.9-.3-5.35.69-3.58,5.91,2.43-1.58,4.69-.57,7,.35,9.1,3.57,18.43,6.11,28.33,5.82,1.15,0,2.42.23,3.44-.2,6.49-2.77,10.37.42,14,5.42,5.65,7.87,12,15.22,17,23.55C1113.21,379.76,1114.71,387.22,1117.14,389.29Z" transform="translate(-630.46 -46.5)"/><path class="cls-5" d="M1119.21,386.77a116.21,116.21,0,0,0-13.81-24.47c-3.58-4.91-8.91-10.18-12.72-14.92-1.11-1.38-5.55-4.5-7.79-3.76-13.26,4.41-22.48,1-34.79-3.36a29,29,0,0,1-3.22-1.08,3.48,3.48,0,0,0-5.06,3c3.38,16.86,1.1,14.31,16.75,14.68,3.78.08,7.56.12,11.34.22,1.14,0,2.64.11,2.6,1.57,0,1.63-1.66,1.16-2.71,1.27-1.27.12-2.55.15-4.48.25,4.22,7.89,8.33,15.31,11.61,23.13.82,2,.93,6.93,2.55,6.92C1091.48,390.1,1107.21,386.88,1119.21,386.77Z" transform="translate(-630.46 -46.5)"/><path class="cls-6" d="M1059.91,284.64c3,3.63,7.59,4.95,11.39,7.41,2.54,1.65,5.35,3,7.59,6.12-3.86.21-6.47-1.58-9.2-2.67-2.21-.88-3.26-.69-3.72,1.8a30.19,30.19,0,0,1-6.48,14.18c-.89,1.07-1,2,.16,2.93,9.53,7.83,24.53,12.45,34.89,2.11,4.73-4.73,6.83-10.67,7.73-17.18.76-5.48-4-7-6.84-9.91a13.93,13.93,0,0,0-1.92-1.47c-10.4,1-20.44-.76-30.33-3.79A3.45,3.45,0,0,0,1059.91,284.64Z" transform="translate(-630.46 -46.5)"/><path class="cls-7" d="M1132.9,192.85c5.17,10,10.09,20.05,10.72,31.48,1.38,25.07-11.9,42.87-37.32,50.43a46.75,46.75,0,0,0,33.62-10.05c18.35-14.52,21.42-38,7.68-57.63C1143.65,201.42,1139.32,196,1132.9,192.85Z" transform="translate(-630.46 -46.5)"/><path class="cls-2" d="M1098.07,183.16c-14.79-6.24-28.9-9.64-44.33-8.92,11.28,14.6,7,28.69.27,42.8-.58,1.21-2.65,2.86-1.27,3.72a20.38,20.38,0,0,0,8.27,2.84c1.46.17,1.15-2.38,1.43-3.7,3.63-17.31,14.84-28,30.44-34.84C1094.21,184.48,1095.6,184.06,1098.07,183.16Z" transform="translate(-630.46 -46.5)"/><path class="cls-8" d="M1059.68,272.87c16.33.55,30,7.15,41.7,18.38,1.34-1.4.82-2.71.5-3.85-1.61-5.66-3-11.39-5.07-16.88-2.24-6-4.71-11.64-12.73-12.52-5.27-.57-10.33-3.08-15.48-4.73-3.4,4.9-7.17,9.58-8.75,15.5C1059.49,270.13,1058.54,271.45,1059.68,272.87Z" transform="translate(-630.46 -46.5)"/><path class="cls-9" d="M1079.69,244.12c-7.39-8.6-15.83-15.69-27-18.79a9.78,9.78,0,0,0-3.36-.63c-2.65.23-6.09-2-7.65,2-1.84,4.79-.54,9.16,3.6,11.53a171.09,171.09,0,0,0,33.45,14.2C1082.41,250.09,1080.55,247.05,1079.69,244.12Z" transform="translate(-630.46 -46.5)"/><path class="cls-10" d="M1042.82,241.59a10.93,10.93,0,0,1-5.16-11.35c.14-1.06.57-2.49-.48-3.21-1.35-.92-2.47.36-3.5,1.05-9.24,6.17-10,15.54-9.24,25.31a79.11,79.11,0,0,0,6.89,26.41c3.93.66,3.53-2.52,3.86-4.65.47-3.08.2-6.23.74-9.33a66.63,66.63,0,0,1,6.4-20.14C1043,244.42,1044,243.11,1042.82,241.59Z" transform="translate(-630.46 -46.5)"/><path class="cls-11" d="M1042.82,241.59c-5.78,10.61-9.18,21.83-8.89,34,0,1.78-.35,3.65-2.6,4.18,2.59,5.36,5.31,10.62,9.54,14.93,3.31-.77,2.35-3.58,2.39-5.6a141.9,141.9,0,0,1,1.12-18.19,76.78,76.78,0,0,1,5.67-18.83c.82-1.92,2.12-3.82.89-6.07Z" transform="translate(-630.46 -46.5)"/><path class="cls-12" d="M1059.68,272.87c2-5.08,3.17-10.55,7.22-14.66a6.17,6.17,0,0,0,1.7-4.94,52,52,0,0,0-10.78-4.23c-5.43,4.91-6.91,11.73-8.72,18.34-3.41,12.47-2.67,24.92.68,37.3,1.84,1.58,2.41,5.07,6,4a5,5,0,0,0,.74-3.3c-1.56-6.49-1.62-13.26-3.71-19.64-2.34-2.41-4.4-5.29-2.8-8.57C1051.86,273.37,1056,273.37,1059.68,272.87Z" transform="translate(-630.46 -46.5)"/><path class="cls-13" d="M1049.78,304.68c.25-7.78-1.49-15.44-1.21-23.28.36-10.29,2.6-19.86,7.88-28.72a21.68,21.68,0,0,0,1.37-3.64l-6.88-3c-2.22,6.47-5.68,12.49-7.07,19.27a105.69,105.69,0,0,0-2,24.33c.05,1.71.65,3.65-1,5.08C1042.51,299.23,1046.55,301.59,1049.78,304.68Z" transform="translate(-630.46 -46.5)"/><path class="cls-14" d="M1059.91,284.64c6.51,1.66,12.87,3.94,19.61,4.67,4.78.52,9.46.49,14-1.36a56.9,56.9,0,0,0-27.68-11.61,16.23,16.23,0,0,0-4.39-.19c-2.94.45-7.44-.41-8,3S1057.24,283.27,1059.91,284.64Z" transform="translate(-630.46 -46.5)"/><path class="cls-9" d="M1106.29,302.77a67.4,67.4,0,0,0,17.71-25c-5.48,1.15-11,2.26-16.61,1.8-2.27-.19-2.89.42-2.29,2.7C1106.89,289,1106.81,295.87,1106.29,302.77Z" transform="translate(-630.46 -46.5)"/><path class="cls-15" d="M1052.82,285.71c-1.25,7.94,2.11,15.27,3,22.94.5-.64,1-1.26,1.48-1.93C1065.52,294.65,1065.23,293.33,1052.82,285.71Z" transform="translate(-630.46 -46.5)"/><path class="cls-16" d="M1054.05,182.12c-.07,11.39-1.18,22.54-7.56,32.45-1.31,2.05-2.82,4-4.24,6,3.77.74,6-.82,7.77-4.22,4.85-9.39,8.22-19,5.87-29.74C1055.54,185,1055.29,183.34,1054.05,182.12Z" transform="translate(-630.46 -46.5)"/><path class="cls-17" d="M1079.69,244.12c-.63,2.75.45,5.7-1,8.34l10.12,3.55A52.81,52.81,0,0,0,1079.69,244.12Z" transform="translate(-630.46 -46.5)"/><path class="cls-18" d="M1105,205.94c0-6.23-5-11.91-10.69-12s-10.45,4.93-10.39,10.87,5.41,10.94,11.7,10.91C1101.28,215.68,1105,211.84,1105,205.94Z" transform="translate(-630.46 -46.5)"/><path class="cls-19" d="M1033,196a8.34,8.34,0,0,0,9.52-7.7,9.94,9.94,0,0,0-8-10.27c-4.44-.63-8.89,3.12-9.47,8A8.91,8.91,0,0,0,1033,196Z" transform="translate(-630.46 -46.5)"/><path class="cls-20" d="M1088.13,204.18c-.11,3.86,2.95,7,7.09,7.19s5.82-2.29,5.94-6c.14-4.22-3.45-8.56-7-8.72C1091,196.47,1088.25,200,1088.13,204.18Z" transform="translate(-630.46 -46.5)"/><path class="cls-21" d="M1029.09,186.37c-.11,2.91,1,5.3,4.48,5.65,3,.29,4.64-1.49,5-4.28.52-3.63-1.71-5.75-4.84-6.31S1029.71,183.55,1029.09,186.37Z" transform="translate(-630.46 -46.5)"/><path class="cls-1" d="M1025.72,340.86s-13.05,1.62-47.87-16.2c0,0-9-11.52-16.08-4.59,0,0-8.52,15.84,10,15.84,0,0,34.11,18.81,61.11,20.79S1025.72,340.86,1025.72,340.86Z" transform="translate(-630.46 -46.5)"/><path class="cls-22" d="M645.1,133.28c-29.11-9.47-5.55-75.52,14.5-84.43S926.28,77.71,936.46,89.38c7.77,8.9,18.3,35.82,4.31,66.69-1.23,2.72,49.42,13.75,47.78,16.53s-55.47-2.83-57.49-.07a114.59,114.59,0,0,1-11.21,13S819.11,189.91,645.1,133.28Z" transform="translate(-630.46 -46.5)"/><path d="M653.23,72.5q-.33,1.77-2.85,2.43a20.88,20.88,0,0,1-4,.46l-.28,2.91-1.94-.2,1.1-11c1.41.13,2.49.26,3.23.4a8,8,0,0,1,3.34,1.26,3.76,3.76,0,0,1,1.47,3.18A3.68,3.68,0,0,1,653.23,72.5Zm-1.9-.45v-.11c.12-1.25-.88-2.07-3-2.47-.29,0-.74-.12-1.36-.19l-.41,4.09a26.83,26.83,0,0,0,2.7-.23C650.58,72.92,651.27,72.56,651.33,72.05Z" transform="translate(-630.46 -46.5)"/><path d="M662.17,79.87l-1.93,0a35.48,35.48,0,0,0-.19-3.71l-4.18,0-1,2.86L653,78.45l3.37-9.16c0-.09.11-.29.25-.63l4.53-.11.72,5.65A38.49,38.49,0,0,1,662.17,79.87Zm-2.34-5.77c0-.23-.19-1.4-.46-3.49l-1.52,0-1.25,3.43Z" transform="translate(-630.46 -46.5)"/><path d="M674.6,77.63l-.85,0c-.09.88-.26,2.19-.49,4a17.16,17.16,0,0,1-5.56.15,5,5,0,0,1-4-3,6.73,6.73,0,0,1-.45-3.83,5.49,5.49,0,0,1,6.35-4.37,5.05,5.05,0,0,1,1.81.72l-1,1.71a3,3,0,0,0-1.12-.44,3.51,3.51,0,0,0-2.58.5,3.19,3.19,0,0,0-1.58,2.87q.06,3.34,3.12,3.91a11.49,11.49,0,0,0,3.34,0l.29-2.28-4.36-.19.11-2,7.15.32Z" transform="translate(-630.46 -46.5)"/><path d="M683.72,83.87l-1.94,0a33.15,33.15,0,0,0-.19-3.71l-4.17,0-1,2.87-1.89-.51,3.37-9.17c0-.08.11-.29.25-.62l4.54-.11q.35,2.82.72,5.65A39.92,39.92,0,0,1,683.72,83.87Zm-2.35-5.77c0-.23-.19-1.4-.45-3.49l-1.52,0-1.25,3.43Z" transform="translate(-630.46 -46.5)"/><path d="M692.29,84.93a16.92,16.92,0,0,1-3.73.31,24.85,24.85,0,0,1-3.65-.46l1.37-10.46,1.91.24-1.1,8.57A14.61,14.61,0,0,0,692,83Z" transform="translate(-630.46 -46.5)"/><path d="M706.21,89l-1.94-.2c.09-.89.23-2.23.41-4l-4.13-.19c-.1.92-.2,2-.31,3.29l-1.94-.2q.51-5.76,1.09-10.22l1.92.25c-.18,1.2-.37,2.82-.56,4.87l4.15.18c.18-1.87.38-3.51.58-4.91l1.91.24q-.28,2.15-.62,5.45C706.44,86.82,706.25,88.64,706.21,89Z" transform="translate(-630.46 -46.5)"/><path d="M722.38,90l-.84,1.82-6-2.93-.22,2.09-1.94-.2c.24-2.29.59-5.75,1.05-10.36l1.91.19-.52,5.13,5.7-5.58,1.33,1.45L717,87.33Z" transform="translate(-630.46 -46.5)"/><path d="M732.87,84.18l-4,2.64-1,7.25L726,93.78l1-7.3-3.71-4,1.4-1.42,3.55,3.81,3.6-2.41Z" transform="translate(-630.46 -46.5)"/><path d="M741.09,94.51l-1.94,0a32.76,32.76,0,0,0-.18-3.71l-4.18,0-1,2.87-1.88-.52,3.37-9.16a5.52,5.52,0,0,1,.25-.63l4.53-.1c.24,1.87.48,3.76.72,5.65A38.44,38.44,0,0,1,741.09,94.51Zm-2.35-5.76-.45-3.49-1.52,0-1.25,3.44Z" transform="translate(-630.46 -46.5)"/><path d="M753.06,87.49q-.42,2.25-5.48,3.57c0,.06,0,.52,0,1.38h-1.93q0-.09,0-3,5.24-1.24,5.42-2.26v-.09a2.68,2.68,0,0,0-1.8-.83,5.57,5.57,0,0,0-4.19.77l-1-1.72a7.77,7.77,0,0,1,5.79-1,5.13,5.13,0,0,1,2.25,1A2.15,2.15,0,0,1,753.06,87.49Zm-5.7,9.15-2-.18.12-2,2,.19Z" transform="translate(-630.46 -46.5)"/><path d="M763.67,89.46q-.42,2.25-5.48,3.57c0,.06,0,.52,0,1.38h-1.93q0-.09,0-3c3.49-.83,5.3-1.59,5.43-2.26V89.1a2.74,2.74,0,0,0-1.81-.83,5.58,5.58,0,0,0-4.19.77l-1-1.72a7.77,7.77,0,0,1,5.79-1,5.13,5.13,0,0,1,2.25,1A2.13,2.13,0,0,1,763.67,89.46ZM758,98.61l-2-.18.13-2,2,.19Z" transform="translate(-630.46 -46.5)"/><path d="M777.83,99.35a3,3,0,0,1-2.69,2.43,10.33,10.33,0,0,1-3.85-.1c-.69-.12-1.51-.32-2.48-.59q.41-3.57,1.19-10.76a25.77,25.77,0,0,1,4.23.07,4.93,4.93,0,0,1,2.4,1.09,2.42,2.42,0,0,1,1,2.44,3.19,3.19,0,0,1-1.49,2,3.09,3.09,0,0,1,1.48,1.39A3,3,0,0,1,777.83,99.35Zm-1.9-.42c.15-.78-.51-1.3-2-1.58q-.88-.15-2.73-.27,0,.26-.12,1.23c-.05.51-.11.92-.16,1.23l.5.12a11.59,11.59,0,0,0,2.5.22C775.16,99.86,775.82,99.54,775.93,98.93Zm-.26-5.39c.09-.48-.5-.83-1.78-1.07a12.55,12.55,0,0,0-2.15-.17l-.31,2.79a6.79,6.79,0,0,0,3.1-.58C775.23,94.18,775.61,93.86,775.67,93.54Z" transform="translate(-630.46 -46.5)"/><path d="M786.84,103.93l-1.94-.19c.09-.9.22-2.24.41-4l-4.13-.19c-.1.92-.21,2-.31,3.29l-2-.19c.34-3.85.71-7.25,1.1-10.23l1.91.25c-.18,1.2-.36,2.83-.55,4.87l4.15.19c.18-1.88.38-3.52.58-4.92L788,93c-.19,1.43-.4,3.24-.62,5.45C787.06,101.79,786.88,103.6,786.84,103.93Z" transform="translate(-630.46 -46.5)"/><path d="M797.13,104.91l-1.94,0a33,33,0,0,0-.19-3.71l-4.17,0-1,2.87-1.89-.52,3.37-9.16c0-.08.11-.29.25-.63l4.54-.1c.23,1.87.48,3.76.72,5.65A39.87,39.87,0,0,1,797.13,104.91Zm-2.35-5.76c0-.24-.19-1.4-.45-3.49l-1.52,0-1.25,3.44Z" transform="translate(-630.46 -46.5)"/><path d="M804.8,106.79l-5.71-.49.2-2,1.48.12a1.91,1.91,0,0,1,0-.47c.07-.41.14-.95.2-1.62.07-1,.11-1.5.14-1.63.1-1,.22-2,.35-3.19l-2.07-.19.2-2,6.34.61-.21,2-2.34-.22c-.14,1.15-.25,2.23-.34,3.24-.07.7-.17,1.75-.33,3.15,0,.11,0,.27,0,.48l2.28.19Z" transform="translate(-630.46 -46.5)"/><path d="M816.38,99.68l-4,2.64-1,7.25-1.93-.29,1-7.3-3.72-4,1.41-1.42,3.55,3.8,3.59-2.4Z" transform="translate(-630.46 -46.5)"/><path d="M824.6,110l-1.94,0a35.48,35.48,0,0,0-.19-3.71l-4.17,0-1,2.86-1.89-.51,3.37-9.16c0-.08.11-.29.25-.63l4.54-.1q.35,2.8.72,5.64A40.09,40.09,0,0,1,824.6,110Zm-2.35-5.76c0-.24-.19-1.4-.45-3.5l-1.52,0L819,104.23Z" transform="translate(-630.46 -46.5)"/><path d="M840.24,111.84l-.84,1.81-6-2.93-.22,2.09-1.94-.19q.36-3.45,1.05-10.36l1.91.19-.52,5.12,5.7-5.58,1.33,1.45-5.87,5.76Z" transform="translate(-630.46 -46.5)"/><path d="M847.39,114.62l-2,.11a9.19,9.19,0,0,1-2-.1c-1.46-.27-2.31-.44-2.57-.53q.51-3.63,1.37-10.75l6.22.84-.29,2-4.27-.58-.35,2.72,4.22.4-.22,2-4.26-.41-.27,2a4.44,4.44,0,0,0,.55.12,19.24,19.24,0,0,0,3.85.12Z" transform="translate(-630.46 -46.5)"/><path d="M863,115.16a3,3,0,0,1-2.69,2.43,10.33,10.33,0,0,1-3.85-.1c-.69-.12-1.52-.32-2.48-.58q.39-3.59,1.19-10.77a25.59,25.59,0,0,1,4.22.07,5,5,0,0,1,2.41,1.09,2.42,2.42,0,0,1,.95,2.45,3.18,3.18,0,0,1-1.49,2,3.13,3.13,0,0,1,1.48,1.39A3.08,3.08,0,0,1,863,115.16Zm-1.9-.41c.15-.79-.52-1.31-2-1.58a25.57,25.57,0,0,0-2.74-.28c0,.17-.06.58-.12,1.23s-.1.92-.16,1.23l.51.12a12.24,12.24,0,0,0,2.49.23C860.35,115.67,861,115.35,861.13,114.75Zm-.26-5.39c.09-.48-.5-.84-1.78-1.08a11.76,11.76,0,0,0-2.16-.16l-.3,2.78a7,7,0,0,0,3.1-.57C860.43,110,860.81,109.67,860.87,109.36Z" transform="translate(-630.46 -46.5)"/><path d="M871.61,118.21a16.38,16.38,0,0,1-3.74.3,24.51,24.51,0,0,1-3.64-.45l1.36-10.47,1.92.25-1.1,8.57a14.81,14.81,0,0,0,4.86-.17Z" transform="translate(-630.46 -46.5)"/><path d="M880.62,120.41l-1.94,0a35.48,35.48,0,0,0-.19-3.71l-4.17,0-1,2.86-1.89-.51,3.37-9.17.25-.62,4.54-.11q.35,2.82.72,5.65A39.92,39.92,0,0,1,880.62,120.41Zm-2.35-5.77c0-.23-.19-1.4-.45-3.49l-1.52,0L875,114.62Z" transform="translate(-630.46 -46.5)"/><path d="M890.84,121.94a14.11,14.11,0,0,1-4.67,0,5,5,0,0,1-4-3,6.51,6.51,0,0,1-.43-3.75,5.42,5.42,0,0,1,6.27-4.32,5.12,5.12,0,0,1,3.42,2.42l-1.61,1.12a3.38,3.38,0,0,0-2.27-1.56,3.34,3.34,0,0,0-2.5.54,3.18,3.18,0,0,0-1.44,2.13,2.72,2.72,0,0,0,0,.64A3.49,3.49,0,0,0,886.6,120a12.31,12.31,0,0,0,4-.09Z" transform="translate(-630.46 -46.5)"/><path d="M900.34,123l-.84,1.81-6-2.92-.22,2.08-1.94-.19q.36-3.45,1-10.36l1.91.19-.52,5.13,5.7-5.59,1.33,1.46L895,120.36Z" transform="translate(-630.46 -46.5)"/><path d="M915.31,124.86a3,3,0,0,1-2.69,2.43,10.53,10.53,0,0,1-3.85-.09c-.69-.13-1.52-.33-2.48-.59q.39-3.58,1.19-10.77a24.08,24.08,0,0,1,4.22.08,5,5,0,0,1,2.41,1.08,2.45,2.45,0,0,1,.95,2.45,3.19,3.19,0,0,1-1.49,2,3,3,0,0,1,1.74,3.41Zm-1.9-.41c.14-.78-.52-1.31-2-1.58a23.67,23.67,0,0,0-2.74-.27c0,.16-.06.57-.12,1.22s-.1.92-.16,1.24l.51.11a12.24,12.24,0,0,0,2.49.23C912.63,125.37,913.3,125.05,913.41,124.45Zm-.26-5.39c.09-.48-.5-.84-1.78-1.08a12.72,12.72,0,0,0-2.16-.16l-.3,2.78A7,7,0,0,0,912,120C912.71,119.7,913.09,119.38,913.15,119.06Z" transform="translate(-630.46 -46.5)"/><path d="M923,128.66l-2,.1a8.59,8.59,0,0,1-2-.09c-1.46-.27-2.31-.45-2.57-.54q.51-3.63,1.37-10.75l6.21.84-.28,2-4.27-.58-.35,2.72,4.22.4-.22,2-4.27-.41-.27,2,.56.13a19.39,19.39,0,0,0,3.85.11Z" transform="translate(-630.46 -46.5)"/><path d="M931.7,129.36a16.33,16.33,0,0,1-3.73.31,24.74,24.74,0,0,1-3.64-.46l1.36-10.46,1.92.24-1.1,8.57a14.56,14.56,0,0,0,4.86-.17Z" transform="translate(-630.46 -46.5)"/><path d="M940.79,123.72l-3.28-.2-1.08,8.57-1.93-.25,1.08-8.44-2.81-.17.16-2,8,.48Z" transform="translate(-630.46 -46.5)"/><path d="M655.42,101.9l-1.95-.2c.09-.89.23-2.23.42-4l-4.14-.19c-.1.92-.2,2-.31,3.29l-1.94-.2q.51-5.76,1.09-10.22l1.92.25c-.18,1.2-.37,2.82-.56,4.87l4.15.18c.19-1.87.38-3.51.58-4.91l1.92.24q-.3,2.15-.63,5.45C655.64,99.75,655.45,101.57,655.42,101.9Z" transform="translate(-630.46 -46.5)"/><path d="M671.58,102.9l-.84,1.81-6-2.93-.21,2.09-1.95-.2c.24-2.29.59-5.75,1-10.36l1.91.19-.52,5.13,5.7-5.58,1.33,1.45-5.87,5.76Z" transform="translate(-630.46 -46.5)"/><path d="M680.8,105.68l-1.94,0a30.72,30.72,0,0,0-.19-3.71l-4.17,0-1,2.87-1.89-.52,3.37-9.16c0-.08.11-.29.25-.63l4.54-.1c.23,1.87.48,3.76.72,5.64A40.09,40.09,0,0,1,680.8,105.68Zm-2.35-5.76c0-.24-.19-1.4-.45-3.5l-1.52,0-1.25,3.44Z" transform="translate(-630.46 -46.5)"/><path d="M691.48,106.62l-.83,1.84-6-2.88-.17,2-1.94-.16,1.09-11a34.14,34.14,0,0,1,3.39.41q5.47,1,4.75,4.86-.4,2.19-4.18,3.11Zm-1.62-5.34c.23-1.24-.77-2.06-3-2.48-.26,0-.76-.12-1.51-.23l-.45,4.71C688.05,102.75,689.71,102.09,689.86,101.28Z" transform="translate(-630.46 -46.5)"/><path d="M701.38,109.5l-1.94,0a30.82,30.82,0,0,0-.19-3.71l-4.17,0-1,2.86-1.89-.51,3.37-9.16c0-.08.11-.29.25-.63l4.54-.1c.23,1.87.48,3.75.72,5.64A40.09,40.09,0,0,1,701.38,109.5ZM699,103.74c0-.24-.19-1.4-.45-3.5l-1.52,0-1.25,3.44Z" transform="translate(-630.46 -46.5)"/><path d="M711.22,103.47l-3.28-.2-1.08,8.58-1.93-.25,1.08-8.44L703.2,103l.16-2,8,.48Z" transform="translate(-630.46 -46.5)"/><path d="M718,113l-2,.1a8.65,8.65,0,0,1-2-.09c-1.46-.27-2.31-.45-2.56-.53q.49-3.65,1.36-10.76.51.09,6.22.85l-.29,2L714.5,104l-.34,2.72,4.21.4-.22,2-4.26-.41-.27,2,.55.12A18.71,18.71,0,0,0,718,111Z" transform="translate(-630.46 -46.5)"/><path d="M736.73,116.15l-1.88.51a38.51,38.51,0,0,1-1.08-6.79,1.37,1.37,0,0,1-.09.2,25.93,25.93,0,0,1-2.63,4.54l-1.53-.61a35.63,35.63,0,0,1-.93-5.74,35.12,35.12,0,0,0-2.63,6.31l-1.83-.59a41.88,41.88,0,0,1,4.39-9.5l1.78.47a48.68,48.68,0,0,0,.63,6.25,38.85,38.85,0,0,0,2.73-6.5l1.88.32A45.08,45.08,0,0,0,736.73,116.15Z" transform="translate(-630.46 -46.5)"/><path d="M744.2,117.83l-2,.1a8.65,8.65,0,0,1-2-.09c-1.45-.27-2.31-.45-2.56-.53q.5-3.65,1.36-10.76c.34.06,2.42.34,6.22.85l-.28,2-4.27-.57-.35,2.72,4.21.4-.21,2-4.27-.41-.27,2,.56.12a18.57,18.57,0,0,0,3.84.11Z" transform="translate(-630.46 -46.5)"/><path d="M752,119.35l-5.71-.5.2-2L748,117a1.55,1.55,0,0,1,0-.47c.07-.41.14-.94.2-1.61.06-1,.11-1.5.13-1.63.11-1,.22-2.06.35-3.2l-2.06-.18.19-2,6.35.62-.22,2-2.34-.21c-.13,1.14-.25,2.22-.34,3.24-.06.7-.17,1.75-.32,3.15a3.36,3.36,0,0,0-.05.48l2.28.18Z" transform="translate(-630.46 -46.5)"/><path d="M761.41,122.08l-1.88.18c-.36-.93-.95-2.3-1.77-4.12s-1.41-3.2-1.76-4.14a28,28,0,0,0-.29,6.59l-1.93.15a38.14,38.14,0,0,1,.73-9.31c.08-.45.17-.91.27-1.41,1,.2,1.75.32,2.12.38a32.89,32.89,0,0,0,1.23,3.67q.14.36,1.92,4.28c.33-2.43.57-4.65.69-6.65l1.93.08A90.44,90.44,0,0,1,761.41,122.08Z" transform="translate(-630.46 -46.5)"/><path d="M776.76,124.42l-1.94-.2c.09-.89.23-2.23.41-4L771.1,120c-.1.92-.2,2-.31,3.29l-1.94-.2q.51-5.76,1.09-10.22l1.91.25c-.17,1.2-.36,2.82-.55,4.87l4.15.18c.18-1.87.38-3.51.58-4.91l1.91.24q-.29,2.15-.62,5.45C777,122.27,776.8,124.09,776.76,124.42Z" transform="translate(-630.46 -46.5)"/><path d="M787.05,125.4l-1.94,0a32.66,32.66,0,0,0-.18-3.71l-4.18,0-1,2.86-1.89-.51,3.37-9.16c0-.08.11-.29.25-.63l4.54-.11.72,5.65A38.64,38.64,0,0,1,787.05,125.4Zm-2.35-5.76c0-.24-.19-1.4-.45-3.5l-1.52,0-1.25,3.44Z" transform="translate(-630.46 -46.5)"/><path d="M797.42,122.92a4.17,4.17,0,0,1-2.64,3.28,7.3,7.3,0,0,1-4.25.36c-.52-.1-1.25-.28-2.2-.54q.38-3.69,1.13-11a13.51,13.51,0,0,1,2.59.32,6.49,6.49,0,0,1,4.08,2.74A6.08,6.08,0,0,1,797.42,122.92Zm-1.92-.34a4.07,4.07,0,0,0-1-3.42,5,5,0,0,0-3-1.86l-.19,0c-.34,2.89-.6,5.3-.8,7.22l.36.07a5.85,5.85,0,0,0,2.8,0A2.39,2.39,0,0,0,795.5,122.58Z" transform="translate(-630.46 -46.5)"/><path d="M807.42,124.78a4.16,4.16,0,0,1-2.64,3.27,7.14,7.14,0,0,1-4.25.36c-.52-.09-1.25-.27-2.19-.53q.36-3.7,1.12-11a13.16,13.16,0,0,1,2.59.31,6.53,6.53,0,0,1,4.08,2.74A6.12,6.12,0,0,1,807.42,124.78Zm-1.91-.35a4.1,4.1,0,0,0-1-3.42,5,5,0,0,0-3-1.85l-.18,0c-.34,2.89-.61,5.29-.8,7.22l.35.06a5.89,5.89,0,0,0,2.81,0A2.39,2.39,0,0,0,805.51,124.43Z" transform="translate(-630.46 -46.5)"/><path d="M814.72,131l-5.7-.49.19-2,1.49.12a1.89,1.89,0,0,1,0-.47,14.23,14.23,0,0,0,.2-1.62c.07-1,.12-1.5.14-1.63.1-1,.22-2,.35-3.19l-2.07-.18.2-2,6.35.61-.22,2-2.34-.21c-.14,1.15-.25,2.23-.34,3.24-.06.7-.17,1.75-.32,3.15a3.74,3.74,0,0,0,0,.48l2.27.19Z" transform="translate(-630.46 -46.5)"/><path d="M826.3,123.88l-3.95,2.64-1,7.25-1.92-.29,1-7.3-3.71-4,1.41-1.42,3.54,3.8,3.6-2.4Z" transform="translate(-630.46 -46.5)"/><path d="M834.52,134.21l-1.94,0a32.66,32.66,0,0,0-.18-3.71l-4.18,0-1,2.86-1.88-.51,3.37-9.16c0-.08.11-.29.25-.63l4.53-.1q.36,2.8.72,5.64A38.64,38.64,0,0,1,834.52,134.21Zm-2.34-5.76c0-.24-.19-1.4-.46-3.5l-1.52,0L829,128.43Z" transform="translate(-630.46 -46.5)"/><path d="M850,129.23l-3.27-.19-1.09,8.57-1.93-.25,1.08-8.44-2.81-.17.16-2,8,.49Z" transform="translate(-630.46 -46.5)"/><path d="M862.33,133.15a6.16,6.16,0,0,1-2.8,4.19,6.54,6.54,0,0,1-4.91,1,4.64,4.64,0,0,1-3.29-2.28,5.72,5.72,0,0,1-.65-4.11,6.77,6.77,0,0,1,7.59-5.23,4.73,4.73,0,0,1,3.32,2.27A5.66,5.66,0,0,1,862.33,133.15Zm-1.92-.33a3.77,3.77,0,0,0-.42-2.66,3,3,0,0,0-2.1-1.44,4.43,4.43,0,0,0-3.31.77,4.33,4.33,0,0,0-2,2.84A3.74,3.74,0,0,0,853,135a2.87,2.87,0,0,0,2.09,1.39,4.54,4.54,0,0,0,3.4-.71A4.16,4.16,0,0,0,860.41,132.82Z" transform="translate(-630.46 -46.5)"/><path d="M871.92,136.75a4.18,4.18,0,0,1-2.64,3.28,7.23,7.23,0,0,1-4.25.35c-.52-.09-1.25-.27-2.19-.53q.36-3.71,1.12-11a13.16,13.16,0,0,1,2.59.31,6.53,6.53,0,0,1,4.08,2.74A6.12,6.12,0,0,1,871.92,136.75ZM870,136.4a4.1,4.1,0,0,0-1-3.41,5,5,0,0,0-3-1.86l-.19,0c-.33,2.89-.6,5.29-.79,7.22l.35.06a5.73,5.73,0,0,0,2.8,0A2.4,2.4,0,0,0,870,136.4Z" transform="translate(-630.46 -46.5)"/><path d="M881.92,138.6a4.16,4.16,0,0,1-2.64,3.28,7.3,7.3,0,0,1-4.25.36q-.78-.15-2.19-.54.38-3.69,1.13-11a13.35,13.35,0,0,1,2.58.32,6.49,6.49,0,0,1,4.08,2.74A6.09,6.09,0,0,1,881.92,138.6Zm-1.91-.34a4.09,4.09,0,0,0-1-3.42,4.86,4.86,0,0,0-3-1.85l-.18,0q-.51,4.34-.8,7.22l.35.07a5.89,5.89,0,0,0,2.81,0A2.41,2.41,0,0,0,880,138.26Z" transform="translate(-630.46 -46.5)"/><path d="M897.59,141.51a4.18,4.18,0,0,1-2.63,3.28,7.31,7.31,0,0,1-4.25.36c-.52-.1-1.26-.28-2.2-.54q.38-3.69,1.13-11a13.35,13.35,0,0,1,2.58.32,6.49,6.49,0,0,1,4.08,2.74A6,6,0,0,1,897.59,141.51Zm-1.91-.34a4.08,4.08,0,0,0-1-3.42,4.93,4.93,0,0,0-3-1.86l-.18,0q-.51,4.33-.8,7.22l.36.07a5.85,5.85,0,0,0,2.8,0A2.41,2.41,0,0,0,895.68,141.17Z" transform="translate(-630.46 -46.5)"/><path d="M904.93,147.66l-2,.1a8.65,8.65,0,0,1-2-.09c-1.45-.27-2.31-.45-2.56-.53q.5-3.64,1.36-10.76l6.22.85-.28,2-4.27-.58-.35,2.73,4.21.4-.21,2-4.27-.41-.27,2,.56.12a19.32,19.32,0,0,0,3.84.11Z" transform="translate(-630.46 -46.5)"/><path d="M913.93,150.39l-1.88.18c-.36-.93-.94-2.3-1.77-4.12s-1.41-3.2-1.76-4.14a27.45,27.45,0,0,0-.28,6.58l-1.94.15a38.17,38.17,0,0,1,.73-9.31c.08-.44.17-.91.28-1.4,1,.19,1.74.32,2.11.37a32.19,32.19,0,0,0,1.23,3.67q.15.38,1.92,4.29.51-3.66.69-6.66l1.93.08A90.58,90.58,0,0,1,913.93,150.39Z" transform="translate(-630.46 -46.5)"/><path d="M927,146.83l-.85-.05c-.1.88-.26,2.2-.49,3.95a16.61,16.61,0,0,1-5.56.15,5,5,0,0,1-4-3,6.65,6.65,0,0,1-.45-3.83,5.49,5.49,0,0,1,6.34-4.38,5,5,0,0,1,1.81.72l-1,1.72a3.27,3.27,0,0,0-1.13-.45,3.49,3.49,0,0,0-2.58.51,3.15,3.15,0,0,0-1.52,2.18,3.82,3.82,0,0,0-.06.68c0,2.24,1.08,3.54,3.13,3.92a11.54,11.54,0,0,0,3.34,0l.28-2.27-4.36-.2.11-2,7.16.31Z" transform="translate(-630.46 -46.5)"/><path d="M934.09,153.07l-2,.1a8.65,8.65,0,0,1-2-.09c-1.45-.27-2.31-.45-2.56-.53q.5-3.63,1.37-10.76.51.09,6.21.85l-.28,2-4.27-.57-.35,2.72,4.21.4-.21,2-4.27-.41-.27,2,.56.12a18.64,18.64,0,0,0,3.85.11Z" transform="translate(-630.46 -46.5)"/><path class="cls-22" d="M714.78,306.41c-21.2-1.87-16.84-55.51-4.92-65.77s184.14-26.2,193-19.3c6.76,5.27,18.5,23.52,14.47,49.12-.35,2.26,35.58,1.44,35,3.81s-37.75,7.83-38.63,10.25a90.88,90.88,0,0,1-5.27,11.75S841.5,317.59,714.78,306.41Z" transform="translate(-630.46 -46.5)"/><path d="M729.89,253.57c0,.89-.53,1.64-1.72,2.24a16.7,16.7,0,0,1-2.94,1l.3,2.15-1.49.19L723,251c1.08-.14,1.91-.23,2.49-.25a6.36,6.36,0,0,1,2.72.34,2.79,2.79,0,0,1,1.66,2.05A3,3,0,0,1,729.89,253.57Zm-1.5,0,0-.08c-.12-.92-1-1.34-2.68-1.27l-1.06.09.4,3c1-.26,1.62-.47,2-.61Q728.45,254.14,728.39,253.57Z" transform="translate(-630.46 -46.5)"/><path d="M737.87,257.38l-1.46.3a26.89,26.89,0,0,0-.78-2.64l-3.14.68-.28,2.24-1.51,0,.95-7.18a4.74,4.74,0,0,1,.08-.49l3.38-.84c.5,1.31,1,2.63,1.52,3.95A28.68,28.68,0,0,1,737.87,257.38Zm-2.76-3.76c-.07-.17-.38-1-.94-2.45l-1.13.29-.35,2.69Z" transform="translate(-630.46 -46.5)"/><path d="M746,256.25l-.31,1.46-5-1.06.21,1.46-1.48.22-1.09-8.15c1.12-.15,2-.25,2.61-.27q4.28-.19,4.41,2.7c.05,1.1-.82,2.09-2.6,2.95Zm-2.14-3.58c0-.93-.94-1.35-2.69-1.28l-1.17.09.48,3.47C742.8,254,743.93,253.28,743.9,252.67Z" transform="translate(-630.46 -46.5)"/><path d="M756.84,256.81l-1.48.41a6.38,6.38,0,0,1-1.5.26c-1.14,0-1.81.07-2,0q-.26-2.7-.84-8l4.81-.44.13,1.49-3.3.31.21,2,3.23-.42.19,1.49-3.27.42.14,1.51h.44a15.34,15.34,0,0,0,2.91-.57Z" transform="translate(-630.46 -46.5)"/><path d="M764.48,255.4l-.32,1.45-5-1.1.2,1.54-1.49.19q-.33-2.55-1-7.65l1.46-.18.5,3.78,3.3-5,1.25.83-3.4,5.14Z" transform="translate(-630.46 -46.5)"/><path d="M776,254.23a2.24,2.24,0,0,1-1.6,2.2,8.19,8.19,0,0,1-2.9.58c-.54,0-1.2,0-2,0-.21-1.77-.53-4.42-1-8a20.19,20.19,0,0,1,3.18-.65,4,4,0,0,1,2,.37,1.79,1.79,0,0,1,1.13,1.61,2.3,2.3,0,0,1-.77,1.69,2.38,2.38,0,0,1,1.35.75A2.23,2.23,0,0,1,776,254.23Zm-2.62-3.82c0-.36-.53-.52-1.52-.48a9.35,9.35,0,0,0-1.65.25l.25,2a5.5,5.5,0,0,0,2.23-.93C773.19,250.94,773.42,250.65,773.41,250.41Zm1.12,3.84c0-.59-.61-.85-1.76-.8a17.75,17.75,0,0,0-2.09.26q0,.18.12.9c.05.38.08.68.09.92h.4a9.91,9.91,0,0,0,1.91-.26C774.11,255.05,774.55,254.71,774.53,254.25Z" transform="translate(-630.46 -46.5)"/><path d="M784,255.32l-1.45.3a26.89,26.89,0,0,0-.78-2.64l-3.14.68-.28,2.24-1.51-.05.95-7.17a4.37,4.37,0,0,1,.08-.5l3.38-.84c.5,1.31,1,2.63,1.51,3.95A26.24,26.24,0,0,1,784,255.32Zm-2.75-3.76c-.07-.17-.38-1-.94-2.44l-1.14.28-.34,2.69Z" transform="translate(-630.46 -46.5)"/><path d="M791.64,255l-1.46.3a24.38,24.38,0,0,0-.78-2.64l-3.13.68-.29,2.24-1.5-.05.94-7.18c0-.06,0-.22.08-.49l3.38-.84c.5,1.31,1,2.63,1.52,3.95A28.68,28.68,0,0,1,791.64,255Zm-2.76-3.76c-.06-.17-.38-1-.94-2.45l-1.13.29-.35,2.69Z" transform="translate(-630.46 -46.5)"/><path d="M799.81,253.85l-.31,1.46-5-1.06.21,1.46-1.47.22-1.1-8.15c1.13-.15,2-.25,2.62-.27,2.85-.13,4.31.77,4.4,2.7.05,1.1-.82,2.09-2.6,2.95Zm-2.14-3.58c0-.93-.93-1.35-2.68-1.28-.2,0-.59,0-1.17.1l.47,3.46C796.57,251.64,797.7,250.88,797.67,250.27Z" transform="translate(-630.46 -46.5)"/><path d="M811.62,247.47a43.7,43.7,0,0,0-2.49,7.77l-1.37.24a32.05,32.05,0,0,1-3.36-7.78l1.43-.42a30.13,30.13,0,0,0,2.28,5.78,50.51,50.51,0,0,1,2.14-6.17Z" transform="translate(-630.46 -46.5)"/><path d="M821,249.13a4.47,4.47,0,0,1-1.37,3.5,5.13,5.13,0,0,1-3.51,1.56,3.59,3.59,0,0,1-2.85-1.09,4.18,4.18,0,0,1-1.21-2.85,4.58,4.58,0,0,1,1.39-3.45,4.94,4.94,0,0,1,3.4-1.61,3.72,3.72,0,0,1,2.88,1.08A4.06,4.06,0,0,1,821,249.13Zm-1.49.09a2.66,2.66,0,0,0-.78-1.85,2.3,2.3,0,0,0-1.82-.68,3.48,3.48,0,0,0-2.35,1.11,3.2,3.2,0,0,0-1,2.39,2.68,2.68,0,0,0,.74,1.85,2.26,2.26,0,0,0,1.81.65,3.58,3.58,0,0,0,2.42-1.08A3.07,3.07,0,0,0,819.53,249.22Z" transform="translate(-630.46 -46.5)"/><path d="M832,253.45l-1.48.41a7,7,0,0,1-1.5.27c-1.14.05-1.81.07-2,.05-.17-1.8-.45-4.47-.84-8l4.81-.44.13,1.49-3.3.3.21,2,3.23-.42.19,1.49-3.27.43.14,1.5h.44a14.37,14.37,0,0,0,2.91-.56Z" transform="translate(-630.46 -46.5)"/><path d="M839.65,252.05l-.32,1.45-5-1.1.2,1.54-1.49.18c-.22-1.69-.55-4.24-1-7.64l1.47-.19.5,3.79,3.3-5,1.25.82-3.41,5.15Z" transform="translate(-630.46 -46.5)"/><path d="M850.45,252a13.08,13.08,0,0,1-2.75.85,19.41,19.41,0,0,1-2.81.28l-.78-7.77,1.48-.14.65,6.36a11.84,11.84,0,0,0,3.62-1Z" transform="translate(-630.46 -46.5)"/><path d="M857.59,252l-1.46.31a26.21,26.21,0,0,0-.78-2.65l-3.14.69-.28,2.24-1.51-.05,1-7.18a4.34,4.34,0,0,1,.08-.49l3.38-.84c.5,1.31,1,2.63,1.52,3.95A28.6,28.6,0,0,1,857.59,252Zm-2.76-3.76c-.07-.16-.38-1-.94-2.44l-1.14.28-.34,2.69Z" transform="translate(-630.46 -46.5)"/><path d="M864.93,248.5a3.08,3.08,0,0,1-1.41,2.81,5.8,5.8,0,0,1-3.13,1c-.4,0-1,0-1.73,0-.24-1.81-.59-4.52-1-8.1a9.86,9.86,0,0,1,2-.21,5.05,5.05,0,0,1,3.53,1.29A4.39,4.39,0,0,1,864.93,248.5Zm-1.49.07a3,3,0,0,0-1.36-2.29,3.94,3.94,0,0,0-2.59-.83h-.14c.24,2.14.46,3.92.65,5.34h.27a4.65,4.65,0,0,0,2.1-.48A1.79,1.79,0,0,0,863.44,248.57Z" transform="translate(-630.46 -46.5)"/><path d="M873,250.56,872.7,252l-5-1.1.2,1.54-1.49.18c-.22-1.69-.55-4.24-1-7.64l1.47-.19.5,3.79,3.3-5,1.25.82-3.41,5.15Z" transform="translate(-630.46 -46.5)"/><path d="M878.85,251.42l-4.36.6-.2-1.46,1.13-.17a1.27,1.27,0,0,1,0-.34,11.91,11.91,0,0,0-.13-1.2c-.11-.71-.17-1.1-.18-1.2-.09-.73-.19-1.52-.29-2.36l-1.58.21L873,244l4.87-.62.18,1.49-1.79.24c.09.85.2,1.64.3,2.39.08.51.18,1.29.31,2.33,0,.08,0,.19,0,.35l1.74-.25Z" transform="translate(-630.46 -46.5)"/><path d="M891.09,248.8c0,1-.68,1.86-2.18,2.66a7.45,7.45,0,0,1-2.62.79l-.2-1.47a7.12,7.12,0,0,0,1.82-.5,3.27,3.27,0,0,0,1.5-1,.39.39,0,0,0,.12-.26c0-.24-.4-.37-1.17-.4-.2,0-.67,0-1.4,0-2.27.11-3.43-.46-3.48-1.7a2.38,2.38,0,0,1,1.1-2,8,8,0,0,1,2.11-1.14,8.39,8.39,0,0,1,2.45-.47c.34,0,.68,0,1,0l-.09,1.49a5.47,5.47,0,0,0-.81,0,5.79,5.79,0,0,0-3.92,1.42c-.21.21-.31.38-.3.5a.22.22,0,0,0,0,.09c.14.22.58.32,1.33.3,1.46,0,2.19,0,2.21,0a3.09,3.09,0,0,1,1.95.62A1.49,1.49,0,0,1,891.09,248.8Z" transform="translate(-630.46 -46.5)"/><path d="M897.37,250.54l-1.48.41a6.75,6.75,0,0,1-1.5.26c-1.14,0-1.81.07-2,0q-.25-2.7-.83-8l4.8-.44.14,1.49-3.31.31.21,2,3.23-.43.19,1.5-3.27.42.15,1.5h.43a15.19,15.19,0,0,0,2.91-.57Z" transform="translate(-630.46 -46.5)"/><path d="M735.14,274.47l-1.49.18c-.09-.66-.22-1.65-.39-3l-3.13.56c.08.68.2,1.49.33,2.42l-1.48.19q-.62-4.25-1-7.55l1.48-.15c.07.9.21,2.1.42,3.61l3.15-.57c-.19-1.39-.33-2.6-.42-3.64l1.48-.15c.1,1.07.26,2.41.47,4C734.93,272.88,735.11,274.22,735.14,274.47Z" transform="translate(-630.46 -46.5)"/><path d="M743,273.44l-1.46.3a26.89,26.89,0,0,0-.78-2.64l-3.14.68-.28,2.24-1.5,0,.94-7.17c0-.07,0-.23.08-.5l3.38-.84c.5,1.31,1,2.63,1.52,4A28.68,28.68,0,0,1,743,273.44Zm-2.76-3.76c-.07-.16-.38-1-.94-2.44l-1.13.28-.35,2.69Z" transform="translate(-630.46 -46.5)"/><path d="M750.65,273.1l-1.46.3a22.31,22.31,0,0,0-.78-2.64l-3.13.68-.29,2.24-1.5-.05.94-7.17c0-.07,0-.23.08-.5l3.39-.84c.5,1.31,1,2.63,1.51,3.95A27.4,27.4,0,0,1,750.65,273.1Zm-2.75-3.76c-.07-.17-.39-1-.94-2.44l-1.14.28-.34,2.69Z" transform="translate(-630.46 -46.5)"/><path d="M758.82,272l-.3,1.47-5-1.07.21,1.47-1.47.21-1.09-8.15c1.12-.15,2-.25,2.61-.27q4.28-.19,4.4,2.7c.05,1.1-.81,2.09-2.6,2.95Zm-2.13-3.58c0-.93-.94-1.35-2.69-1.28-.2,0-.59,0-1.17.1l.47,3.46C755.59,269.76,756.71,269,756.69,268.39Z" transform="translate(-630.46 -46.5)"/><path d="M772.47,268.81l-.65.11c.09.65.19,1.62.32,2.93a13.39,13.39,0,0,1-4.14,1,3.91,3.91,0,0,1-3.54-1.47,4.87,4.87,0,0,1-1-2.69,3.8,3.8,0,0,1,1.12-2.91,4.16,4.16,0,0,1,2.88-1.31,4.2,4.2,0,0,1,1.49.21l-.48,1.42a2.44,2.44,0,0,0-.93-.13,2.68,2.68,0,0,0-1.84.8,2.31,2.31,0,0,0-.77,1.82,2.26,2.26,0,0,0,.08.51,2.72,2.72,0,0,0,3,2.29,8.89,8.89,0,0,0,2.5-.56l-.18-1.69-3.3.6-.26-1.47,5.42-1Z" transform="translate(-630.46 -46.5)"/><path d="M780.38,271.77l-1.45.3a26.89,26.89,0,0,0-.78-2.64l-3.14.68-.29,2.24-1.5-.05.95-7.17a4.74,4.74,0,0,1,.08-.5l3.38-.84c.5,1.31,1,2.63,1.51,3.95A26.58,26.58,0,0,1,780.38,271.77ZM777.63,268c-.07-.16-.38-1-.94-2.44l-1.14.28-.34,2.69Z" transform="translate(-630.46 -46.5)"/><path d="M787.49,265l-2.5,2.58.49,5.39-1.5.12-.49-5.44L780,265.44l.81-1.26,3.32,2.15,2.28-2.35Z" transform="translate(-630.46 -46.5)"/><path d="M793.89,271.45l-1.48.41a6.75,6.75,0,0,1-1.5.26c-1.13.05-1.81.07-2,.05q-.25-2.7-.83-8l4.8-.44.13,1.49-3.29.31.2,2,3.23-.43.19,1.49-3.27.43.15,1.5h.43a15.19,15.19,0,0,0,2.91-.57Z" transform="translate(-630.46 -46.5)"/><path d="M804.69,265l-2.49.41.67,6.37-1.49.14-.65-6.27-2.14.35-.22-1.46,6.08-1Z" transform="translate(-630.46 -46.5)"/><path d="M812.54,271l-1.49.19c-.09-.66-.22-1.65-.38-3l-3.13.57c.08.67.19,1.48.33,2.42l-1.49.19q-.61-4.25-1-7.56l1.48-.14c.08.89.22,2.09.43,3.6l3.14-.57c-.19-1.38-.32-2.59-.41-3.64l1.47-.14c.1,1.06.26,2.41.48,4C812.34,269.42,812.51,270.77,812.54,271Z" transform="translate(-630.46 -46.5)"/><path d="M818.87,270.33l-1.48.41a6.83,6.83,0,0,1-1.5.27c-1.13.05-1.81.07-2,.05q-.25-2.71-.83-8c.26,0,1.87-.16,4.8-.44l.14,1.5-3.3.3.21,2,3.23-.42.18,1.49-3.27.42.15,1.51h.44a15.89,15.89,0,0,0,2.9-.56Z" transform="translate(-630.46 -46.5)"/><path d="M830,269.57a12.44,12.44,0,0,1-2.74.85,19.36,19.36,0,0,1-2.81.29l-.79-7.78,1.48-.14.65,6.36a11.75,11.75,0,0,0,3.62-.94Z" transform="translate(-630.46 -46.5)"/><path d="M838.73,265.43a4.46,4.46,0,0,1-1.38,3.49,5.09,5.09,0,0,1-3.5,1.56,3.58,3.58,0,0,1-2.86-1.09,4.13,4.13,0,0,1-1.2-2.85,4.51,4.51,0,0,1,1.38-3.44,4.92,4.92,0,0,1,3.4-1.61,3.74,3.74,0,0,1,2.89,1.08A4.1,4.1,0,0,1,838.73,265.43Zm-1.5.08a2.69,2.69,0,0,0-.77-1.84,2.3,2.3,0,0,0-1.83-.68,3.4,3.4,0,0,0-2.34,1.11,3.19,3.19,0,0,0-1,2.38,2.75,2.75,0,0,0,.74,1.86,2.31,2.31,0,0,0,1.81.65,3.59,3.59,0,0,0,2.42-1.09A3,3,0,0,0,837.23,265.51Z" transform="translate(-630.46 -46.5)"/><path d="M845.79,268.87a13.69,13.69,0,0,1-2.75.85,21.13,21.13,0,0,1-2.81.28l-.78-7.77,1.47-.15.66,6.36a11.54,11.54,0,0,0,3.62-.94Z" transform="translate(-630.46 -46.5)"/><path d="M848.18,266.12l-1.48.2-.75-5.27,1.48-.21Zm.33,3.13-1.51.06-.28-1.48,1.53-.07Z" transform="translate(-630.46 -46.5)"/><path d="M860.43,263.37c0,.89-.53,1.64-1.72,2.24a16.64,16.64,0,0,1-2.93,1l.29,2.14-1.49.19-1.08-8.13c1.08-.15,1.92-.23,2.5-.26a6.38,6.38,0,0,1,2.72.34,2.8,2.8,0,0,1,1.65,2.05A2,2,0,0,1,860.43,263.37Zm-1.5,0v-.07c-.12-.93-1-1.35-2.69-1.28l-1.05.09.4,3c1-.27,1.61-.47,2-.62C858.52,264.13,859,263.75,858.93,263.37Z" transform="translate(-630.46 -46.5)"/><path d="M868.47,268.5l-1.46.31a23.84,23.84,0,0,0-.78-2.65l-3.13.69-.29,2.24-1.5,0,.94-7.18c0-.06,0-.23.08-.5l3.38-.84c.5,1.32,1,2.63,1.52,4A29.09,29.09,0,0,1,868.47,268.5Zm-2.76-3.76c-.06-.16-.38-1-.94-2.44l-1.13.28-.35,2.69Z" transform="translate(-630.46 -46.5)"/><path d="M876.59,266.19l-.31,1.46-5-1.06.21,1.46-1.48.21-1.09-8.14c1.12-.16,2-.25,2.61-.28,2.85-.13,4.32.78,4.41,2.71,0,1.1-.82,2.08-2.6,2.95Zm-2.14-3.58c0-.93-.94-1.36-2.69-1.28l-1.17.09.48,3.47C873.35,264,874.48,263.22,874.45,262.61Z" transform="translate(-630.46 -46.5)"/><path d="M888.42,260.33a43.52,43.52,0,0,0-2.49,7.78l-1.37.23a31.88,31.88,0,0,1-3.36-7.78l1.43-.42a30,30,0,0,0,2.28,5.79,51,51,0,0,1,2.14-6.17Z" transform="translate(-630.46 -46.5)"/><path d="M897.82,262a4.45,4.45,0,0,1-1.37,3.49,5.12,5.12,0,0,1-3.5,1.56,3.6,3.6,0,0,1-2.86-1.09,4.18,4.18,0,0,1-1.21-2.85,4.54,4.54,0,0,1,1.39-3.44,4.86,4.86,0,0,1,3.4-1.61,3.76,3.76,0,0,1,2.89,1.08A4.08,4.08,0,0,1,897.82,262Zm-1.49.08a2.63,2.63,0,0,0-.78-1.84,2.3,2.3,0,0,0-1.82-.69,3.41,3.41,0,0,0-2.34,1.12,3.14,3.14,0,0,0-1,2.38,2.66,2.66,0,0,0,.74,1.85,2.28,2.28,0,0,0,1.81.66,3.64,3.64,0,0,0,2.42-1.09A3.06,3.06,0,0,0,896.33,262.08Z" transform="translate(-630.46 -46.5)"/><path d="M726.36,290.09a13.08,13.08,0,0,1-2.75.85,19.41,19.41,0,0,1-2.81.28l-.78-7.77,1.48-.15.65,6.37a11.84,11.84,0,0,0,3.62-.95Z" transform="translate(-630.46 -46.5)"/><path d="M731.94,290.56l-4.37.6-.19-1.46,1.13-.17a1.27,1.27,0,0,1,0-.34c0-.31-.06-.71-.13-1.21-.12-.7-.18-1.1-.18-1.19-.1-.73-.19-1.52-.29-2.36l-1.58.21-.2-1.49,4.86-.62.19,1.49-1.8.23c.1.85.2,1.65.31,2.4.07.51.17,1.29.3,2.32,0,.08,0,.2,0,.36l1.73-.25Z" transform="translate(-630.46 -46.5)"/><path d="M738.61,284.2l-2.48.41.66,6.36-1.49.15-.65-6.27-2.13.35-.23-1.46,6.09-1Z" transform="translate(-630.46 -46.5)"/><path d="M745.35,289.9l-1.48.41a7,7,0,0,1-1.5.27c-1.14.05-1.81.07-2,.05-.17-1.8-.45-4.47-.84-8l4.81-.44.13,1.49-3.3.3.21,2,3.23-.42.19,1.49-3.27.43.15,1.5h.43a14.25,14.25,0,0,0,2.91-.56Z" transform="translate(-630.46 -46.5)"/><path d="M748.29,286.87l-1.48.2-.75-5.27,1.48-.22Zm.33,3.13-1.51.06-.28-1.48,1.52-.07Z" transform="translate(-630.46 -46.5)"/><path d="M760.57,284.78c0,.89-.54,1.64-1.72,2.24a16.51,16.51,0,0,1-2.94,1l.3,2.14-1.49.19-1.08-8.13c1.08-.15,1.91-.23,2.49-.26a6.36,6.36,0,0,1,2.72.34,2.81,2.81,0,0,1,1.66,2.05A3,3,0,0,1,760.57,284.78Zm-1.5,0,0-.08c-.12-.92-1-1.34-2.68-1.27l-1.06.09.4,3c1-.27,1.62-.47,2-.62Q759.13,285.35,759.07,284.78Z" transform="translate(-630.46 -46.5)"/><path d="M767,289l-4.37.61-.19-1.47,1.13-.17a1.59,1.59,0,0,1-.06-.34,11.45,11.45,0,0,0-.12-1.2q-.18-1.05-.18-1.2c-.1-.73-.19-1.51-.29-2.36l-1.58.22-.2-1.49L766,281l.19,1.49-1.8.24c.1.85.2,1.65.31,2.39.07.52.17,1.29.3,2.33,0,.08,0,.2,0,.36l1.73-.25Z" transform="translate(-630.46 -46.5)"/><path d="M773.66,282.64l-2.48.41.66,6.36-1.49.15-.65-6.27-2.13.35-.23-1.47,6.09-1Z" transform="translate(-630.46 -46.5)"/><path d="M781.51,289.06l-1.38.45c-.43-.61-1.1-1.5-2-2.68s-1.6-2.07-2-2.68a19.84,19.84,0,0,0,.92,4.79l-1.43.44a27.93,27.93,0,0,1-1.06-6.84c0-.33,0-.68,0-1.06l1.65-.08a24.06,24.06,0,0,0,1.56,2.43c.11.17.84,1.09,2.18,2.77q-.26-2.72-.63-4.92l1.45-.26A62,62,0,0,1,781.51,289.06Z" transform="translate(-630.46 -46.5)"/><path d="M789.43,287.66,788,288a26.89,26.89,0,0,0-.78-2.64l-3.14.68-.28,2.24-1.51-.05,1-7.17a4.37,4.37,0,0,1,.08-.5l3.38-.84c.5,1.31,1,2.63,1.52,3.95A28.68,28.68,0,0,1,789.43,287.66Zm-2.76-3.76c-.07-.17-.38-1-.94-2.44l-1.14.28-.34,2.69Z" transform="translate(-630.46 -46.5)"/><path d="M801.05,288.19l-1.38.44c-.42-.6-1.1-1.5-2-2.67s-1.61-2.07-2-2.69a20.41,20.41,0,0,0,.92,4.8l-1.42.43a27.37,27.37,0,0,1-1.06-6.83c0-.33,0-.69,0-1.06l1.66-.08a22.59,22.59,0,0,0,1.55,2.43c.11.16.84,1.09,2.18,2.77q-.25-2.72-.63-4.92l1.46-.26A64,64,0,0,1,801.05,288.19Z" transform="translate(-630.46 -46.5)"/><path d="M809,286.79l-1.46.3a25.38,25.38,0,0,0-.78-2.64l-3.14.68-.28,2.24-1.5-.05.94-7.18c0-.06,0-.22.08-.49l3.38-.84c.5,1.31,1,2.63,1.52,3.95A28.28,28.28,0,0,1,809,286.79ZM806.21,283c-.07-.17-.38-1-.94-2.45l-1.13.29-.35,2.68Z" transform="translate(-630.46 -46.5)"/><path d="M816.17,287.14l-1.49.19c-.09-.66-.22-1.65-.38-3l-3.13.56q.12,1,.33,2.43l-1.49.18q-.62-4.23-1-7.55l1.48-.15c.08.9.22,2.1.43,3.61l3.14-.57c-.19-1.38-.32-2.6-.41-3.64l1.47-.15c.1,1.07.26,2.41.48,4C816,285.55,816.14,286.89,816.17,287.14Z" transform="translate(-630.46 -46.5)"/><path d="M822.49,286.51l-4.36.61-.2-1.46,1.14-.17a1.82,1.82,0,0,1-.06-.35,9.75,9.75,0,0,0-.13-1.2c-.11-.7-.17-1.1-.17-1.19-.1-.73-.2-1.52-.29-2.37l-1.59.22-.2-1.49,4.87-.63.18,1.49-1.79.24c.1.85.2,1.65.31,2.4.07.51.17,1.29.3,2.32,0,.08,0,.2,0,.36l1.74-.25Z" transform="translate(-630.46 -46.5)"/><path d="M835.19,285.35a11.27,11.27,0,0,1-3.48.82,3.91,3.91,0,0,1-3.56-1.46,4.69,4.69,0,0,1-1-2.64,3.74,3.74,0,0,1,1.09-2.87,4.12,4.12,0,0,1,2.86-1.29,4,4,0,0,1,3,1.16l-1,1.08a2.65,2.65,0,0,0-3.75.07,2.3,2.3,0,0,0-.72,1.78,1.93,1.93,0,0,0,.08.47,2.65,2.65,0,0,0,3,2.23,10.21,10.21,0,0,0,3-.74Z" transform="translate(-630.46 -46.5)"/><path d="M842.09,286l-1.49.19c-.09-.66-.22-1.65-.38-3l-3.13.57c.08.67.19,1.48.33,2.42l-1.49.19c-.41-2.83-.72-5.35-.95-7.56l1.48-.14c.08.89.22,2.1.43,3.6l3.14-.56c-.19-1.39-.32-2.6-.41-3.65l1.47-.14c.11,1.06.26,2.41.48,4C841.89,284.4,842.06,285.74,842.09,286Z" transform="translate(-630.46 -46.5)"/><path d="M850,285l-1.46.3a21.77,21.77,0,0,0-.78-2.64l-3.13.68-.29,2.24-1.5-.05.94-7.18c0-.06,0-.22.08-.49l3.39-.84c.5,1.31,1,2.63,1.51,3.95A27,27,0,0,1,850,285Zm-2.75-3.76c-.07-.17-.39-1-.94-2.45l-1.14.29-.34,2.68Z" transform="translate(-630.46 -46.5)"/><path d="M857.17,285.31l-1.49.19c-.08-.66-.21-1.65-.38-3l-3.13.57c.08.67.19,1.48.33,2.42l-1.49.18q-.62-4.23-.94-7.55l1.48-.14q.11,1.33.42,3.6l3.14-.57c-.18-1.38-.32-2.6-.41-3.64l1.48-.15c.1,1.07.26,2.42.47,4C857,283.72,857.15,285.06,857.17,285.31Z" transform="translate(-630.46 -46.5)"/><path d="M863.76,278.62l-2.49.41.67,6.36-1.49.15-.66-6.27-2.13.35-.22-1.47,6.08-1Z" transform="translate(-630.46 -46.5)"/><path d="M872,284l-1.46.31a21.86,21.86,0,0,0-.78-2.65l-3.13.68-.29,2.25-1.5-.06,1-7.17c0-.06,0-.23.07-.5l3.39-.84c.5,1.32,1,2.63,1.51,3.95A27.77,27.77,0,0,1,872,284Zm-2.75-3.76c-.07-.16-.39-1-.94-2.44l-1.14.28-.34,2.69Z" transform="translate(-630.46 -46.5)"/><path d="M886.6,283.39l-1.32.68a27.77,27.77,0,0,1-2-4.71l0,.16a19,19,0,0,1-1.19,3.71l-1.25-.18a25.51,25.51,0,0,1-1.69-4,25.16,25.16,0,0,0-.88,5l-1.47-.12a29.8,29.8,0,0,1,1.65-7.6l1.42,0a36.08,36.08,0,0,0,1.54,4.4,27.46,27.46,0,0,0,.93-5.15l1.47-.09A32,32,0,0,0,886.6,283.39Z" transform="translate(-630.46 -46.5)"/><path d="M894,283l-1.45.3a26.89,26.89,0,0,0-.78-2.64l-3.14.68-.28,2.24-1.51-.05,1-7.17a4.37,4.37,0,0,1,.08-.5l3.38-.84c.5,1.31,1,2.63,1.51,3.95A26.58,26.58,0,0,1,894,283Zm-2.75-3.76c-.07-.16-.38-1-.94-2.44l-1.14.28-.34,2.69Z" transform="translate(-630.46 -46.5)"/><path d="M900.11,283.05l-4.36.61-.2-1.47,1.13-.17a1.21,1.21,0,0,1,0-.34c0-.31-.06-.71-.13-1.2-.12-.7-.17-1.1-.18-1.2-.09-.73-.19-1.51-.29-2.36l-1.58.22-.2-1.49,4.86-.63.19,1.49-1.79.24c.09.85.19,1.65.3,2.39.08.52.18,1.29.31,2.33a1.85,1.85,0,0,0,0,.35l1.74-.25Z" transform="translate(-630.46 -46.5)"/><path d="M907.64,283.43l-1.38.45c-.42-.61-1.1-1.5-2-2.68s-1.61-2.06-2-2.68a19.28,19.28,0,0,0,.92,4.79l-1.43.44a27.46,27.46,0,0,1-1.06-6.84c0-.33,0-.68,0-1.05l1.65-.09a22.59,22.59,0,0,0,1.55,2.43c.12.17.84,1.09,2.18,2.77-.17-1.81-.38-3.45-.63-4.91l1.46-.27A64.29,64.29,0,0,1,907.64,283.43Z" transform="translate(-630.46 -46.5)"/></svg>