<svg id="Layer_1" data-name="Layer 1" xmlns="http://www.w3.org/2000/svg" viewBox="0 0 620.55 390.13"><defs><style>.cls-1{fill:#030304;}.cls-2{fill:#040404;}.cls-3,.cls-37{fill:#fff;}.cls-4{fill:#8c4b96;}.cls-5{fill:#ffcc39;}.cls-6{fill:#7986ac;}.cls-7{fill:#b46118;}.cls-8{fill:#552883;}.cls-9{fill:#fdffff;}.cls-10{fill:#fdcc39;}.cls-11{fill:#0e0d0a;}.cls-12{fill:#b36018;}.cls-13{fill:#7a87ac;}.cls-14{fill:#57223a;}.cls-15{fill:#7b87ab;}.cls-16{fill:#ce92a2;}.cls-17{fill:#b26217;}.cls-18{fill:#ba6d17;}.cls-19{fill:#99394f;}.cls-20{fill:#b36517;}.cls-21{fill:#f6f6f6;}.cls-22{fill:#884692;}.cls-23{fill:#863349;}.cls-24{fill:#22131b;}.cls-25{fill:#f7f7f7;}.cls-26{fill:#532780;}.cls-27{fill:#757e99;}.cls-28{fill:#6b2940;}.cls-29{fill:#edbb31;}.cls-30{fill:#6b516f;}.cls-31{fill:#804191;}.cls-32{fill:#222333;}.cls-33{fill:#263842;}.cls-34{fill:#cdab31;}.cls-35{fill:#cccdd4;}.cls-36{fill:#e6a828;}.cls-37{stroke:#1d1e1c;stroke-miterlimit:10;stroke-width:2px;}</style></defs><title>2</title><path class="cls-1" d="M322.64,395.19s8.53,21.26,7.49,78.15c0,0-7.75,14.22,3,22,0,0,20.76,6.64,11.47-20.13,0,0,2.42-56.21-9.09-96.05S322.64,395.19,322.64,395.19Z" transform="translate(-198.24 -109.69)"/><path class="cls-1" d="M268.43,398.92s8.53,21.26,7.5,78.14c0,0-7.76,14.23,3,22,0,0,20.76,6.64,11.48-20.13,0,0,2.42-56.21-9.09-96S268.43,398.92,268.43,398.92Z" transform="translate(-198.24 -109.69)"/><path class="cls-2" d="M268.57,131.68c2.86,5.37,2.25,7-3.59,8.74-4,1.15-7.76,2.55-11,5.23-4.57,5.18-5,10.93-1,16.3,3.09,4.17,2.26,7.11-.43,11-10.37,14.86-18,30.77-17.54,49.53,0,2.94,0,5.88,0,8.82a40.78,40.78,0,0,0,.51,7.65c2.83,17.68,11.75,32,24.75,43.91,3.24,4.09,9,5.84,10.53,11.53a3.63,3.63,0,0,0,2.38,1.61c7.58-.85,13.69.81,16.09,9.14.55,1.91,1.66,3,4.08,2.52,8.67-1.84,16,1,22.36,6.85,3.83,3.56,8.5,5.28,13.38,6.7,6.7,1.1,12.76-.05,17.85-4.87,2.67-2.53,6-3.84,9.45-2.59s2.73,5,3,7.78c1,10.16-2.57,15.37-12.27,18.66a50.4,50.4,0,0,1-17.63,2.3,16.52,16.52,0,0,0-4.1.26c-1.7.4-4.17.29-4.14,2.67,0,1.71,2.16,2.11,3.63,2.63,3.52,1.25,7.21,1.16,10.87,1.27,3.36.1,5,1.75,5.13,5.09.45,12.84,2.57,25.5,4.23,38.21.91,7,.39,7.6-6.59,7.65-19.93.14-39.86-.08-59.78.09-8.43-.34-16.79-1.91-25.28-1.41-4.7.28-5.56-2.06-3.83-6a6.07,6.07,0,0,0,.45-1.3c2.09-11.26,6.82-18.93,20.34-16.8,3.89.61,8-1.46,11.91-2.88,4.14-1.91,8.64-3.13,12.28-6,6.35-5.05,6.15-11.87-.44-17-4-1.32-7.62-.09-11.23,1.55a63,63,0,0,1-15.65,4.92c-3.75.63-5.35-.6-4.18-4.43A240,240,0,0,1,272,326.45a6,6,0,0,1,5.06-4c2.13-.29,4-1.11,4.33-3.64-1.36-2.6-4.47-2.36-6.44-4-4.25-2.11-6.93-6.13-10.71-8.83-1.24-1-2.36-2.17-4.13-2.08-5.25,9.52-15.17,15.12-20.66,24.46-6.18,9.72-9.06,20-5,31.31a11.3,11.3,0,0,0,3.31,5.15c6.06,4.56,5.56,9.86,3.25,16.36-.78,2.17-1.45,4.08-2.08,5.75a31.26,31.26,0,0,1-6.12,18.19q62.82-.09,125.65-.09a39.27,39.27,0,0,1-.86-10.74c0-.11,0-.21,0-.31-.23-1.28-.44-2.78-.68-4.63-1.46-11.12-4-22.12-3.68-33.45.19-6.2,6.12-14.34,11.88-15.8,3.09-.79,5.11,1.57,7.34,3,13.78,9,28.44,15.84,44.64,19.1,10.92,2.19,17.84-.51,23.2-8.78,3.14-9.76-1.35-17.59-6.37-25.3-3.54-4.89-8.26-8.52-13.23-11.78-5.73-3.74-12.54-2.58-15.85,2.37-3.1,4.65-1.64,10.79,3.6,15,2.31,1.86,4.82,3.48,7,5.54a33.91,33.91,0,0,1,3.28,3.55,141.75,141.75,0,0,1-28.58-12.51,107.61,107.61,0,0,1-19-14.48c-4.43-4.18-2.23-5.31,2.14-6,17.93-5.49,33.09-14.81,43.45-31,2.34-3.64,6.83-5.32,9.09-9.15,7.78-13,9.06-27.42,8.82-42.12.7-3.18-.37-6.08-1.43-9-1-12.08-5.26-22.86-11.48-33.35-5.33-9-9.84-18.42-17.83-26.65,8.63,1.16,15.32,3.86,20.14,10.38,1.65,2.23,3.16,6.47,6.46,4.8,4.05-2.05,1.31-6,.42-9.16-3.88-9.32-7.74-18.58-15.8-25.37-9.09-7.65-17.42-7.56-25.14,1.4-3.17,3.67-5.73,4-10,2.21q-44.54-18.93-89.5-.74c-5.73,2.32-8.71.92-10.57-5.75-2.83-10.18-9.15-17.1-18.16-22.17s-18.44-4.7-28-4.25c-2,.09-4.18.8-4.16,3.61,3.42,5,9,1.63,13.25,3.43a48.57,48.57,0,0,1,18.88,7.39A19.68,19.68,0,0,1,268.57,131.68ZM249.19,348.4c0-2.16,1.08-3.65,1.89-5.67a29.59,29.59,0,0,1,4.41-7.33c.76-.84,3.91-5.39,4.26-4.48.54,1.38-2.16,8-2.94,9.25a24.21,24.21,0,0,1-.72,2.44c-.22.75-.41,1.5-.64,2.24A9.82,9.82,0,0,1,254,348l-.09.25a1,1,0,0,1,0,.72c-.35.86-2,5.42-2.44,6.27-.62,1.26-2.27-1.54-2.29-3.52A12.52,12.52,0,0,1,249.19,348.4Z" transform="translate(-198.24 -109.69)"/><path class="cls-3" d="M308.78,248c11.15,9.56,24.17,15.54,38,20,2.79.9,5-.22,7.16-1.39,11-5.87,16.9-15.64,20.91-27.83-7.22,2-13.38,1.13-16.59-5.74-2.62-5.64.64-10.15,4.35-14.17,4.4-4.76,9.23-4,14.87,0-.38-16-5.67-28.71-17.56-38.42-1.25-1-2.56-2.1-4.31-1.76-18.16,3.47-36.85,4.75-53.93,12.8-1.05,1.19-2.38,2.23-2.73,3.85C294.93,214.19,295.12,232.35,308.78,248Z" transform="translate(-198.24 -109.69)"/><path class="cls-4" d="M293.24,349.77c6.49,5.54,6.37,10.76-.62,15.23-3.22,2.06-6.79,3.56-10.21,5.32-3.93,10.23-8.54,20.37-4.05,31.67,22,.1,44,.14,66.05.35,3.33,0,4.47-.84,3.89-4.31-2.58-15.33-5.25-30.67-5.08-46.29,0-3.28-1.2-4.43-4.43-4.43-5.43,0-10.93.15-16.85-2.42,7.75-1.12,14.91.09,22-1.68,17.94-4.51,19.41-11.86,16.76-29.83-.47-3.21-10.88-3.81-13.48-.31-5.06,6.79-11.8,7.09-19.1,6.35-8.24-2.51-16.74.21-25.07-1.31-3.22-.58-5.53,1.72-7,4.55a103.39,103.39,0,0,0-7.76,19.68C287.06,346.67,288.41,349.42,293.24,349.77Z" transform="translate(-198.24 -109.69)"/><path class="cls-3" d="M353.76,303.33c19.63-1.55,36.94-8.26,50.75-22.75,2.51-2.64,4-4.42.11-8.11-7.12-6.77-8.65-16.41-9.83-25.79-2.2-17.44-2.31-34.73,4.58-51.38,1.41-3.4,2.5-7.39,5.62-9.28,5.93-3.59,3.72-7,.85-11a67.5,67.5,0,0,0-17.22-16.62c-1.55-1-3.34-3.23-4.91,0-4.29,8.65-11.81,13.68-20.87,18.15,14.81,13,20.63,29.13,19.19,48-1.42,18.51-8.12,34.2-24.86,44.78,6.37,4.07,13.91.27,20,3.44l-.06,1.87c-4.64,0-9.27.09-13.91,0-9.17-.23-15,3.29-16.81,12.32-1.25,6.36-4.35,7.08-9.48,6.24-5.65-.92-11.31-1.73-17-2.59-1.86-.48-3.83-1.34-4.83,1.32,1.72,5.14,6.61,6,10.75,7.42C334.82,302.47,344,304.88,353.76,303.33Z" transform="translate(-198.24 -109.69)"/><path class="cls-5" d="M336.12,176.76c12.19-1.62,24.65-2.38,35.17-9.83,4.46-3.15,10.63-6.73,10.17-11.91-.35-3.88-7.53-5.06-12-6.54-23.49-7.77-47-8.74-70.38.55a61.83,61.83,0,0,0-28.57,32.74c-1.51,3.88-3.95,7.83-1.85,12.34,3.36-1.35,5.14-4.24,6.87-7.14,5.33-8.92,12.38-15.93,22-20.09,3.38.64,5.45-1.68,7.52-3.36-6.18,11.88-20.06,16.67-26.92,28.21q-1.56,3-3.13,6l.9,1.42c11.66-9.68,25.94-13.22,39.53-18.38,16.61-4.94,30.65-14.6,43.53-23.28-6.53,5.19-15.06,10.12-23.35,15.42-1.21.78-3.1,1.63-2,3.64C334.06,177.38,335.23,177.13,336.12,176.76Z" transform="translate(-198.24 -109.69)"/><path class="cls-6" d="M353.76,303.33c-13.71-.6-26.66-3.89-38.47-11.1-.32-2.42-4.12-1.73-4-4.52-8.47-3-16.45-6.78-23-13.17-8.56-8.39-9.69-16.1-3.78-26.42.33-.59.93-1.07,1.11-1.7.53-1.79-9.86-23-10.84-24.47-1.6-2.5-2.34-5.57-3.58-8.77,2.91-.07,3.83,3.1,6.61,2.54.74-4,1.51-8.2,2.38-12.87-5.11,1.53-7.24,6.53-11.77,8.42-2.93-3.56,1.43-7.08-.41-10.74-6.63,4.93-10.2,11.7-13,19-2.45,6.39-4.07,13.15-8.37,18.69-1.7,2.21-.7,4.32-.05,6.5,4.59,15.26,13.79,27.4,26.39,36.72C297,299.2,324.21,305.73,353.76,303.33Z" transform="translate(-198.24 -109.69)"/><path class="cls-7" d="M236.83,221.61c-.22-18.38,7.34-34,17.72-48.44,2.81-3.92,5-6.72.29-11.24s-3.42-10.38.15-15.54a4.84,4.84,0,0,0-3.05-3.44,39.94,39.94,0,0,1-15.87-12.53c-1-1.4-2.59-3-4.57-1.93-1.79,1-1.74,3.12-1.39,4.93,1.14,5.87,5.29,9.3,10.12,12.14,1.79.81,4,.84,5.36,2.46-2-1.87-5-1.53-7.1-3.27-7.38-4.06-13.54-9-14-18.38a2.9,2.9,0,0,0-1.87-2.6c-6.48,2.87-7.15,9.1-8,14.83-1.09,7.54.21,15,2.39,22.32,3.5,11.78,8.25,23.33,6.95,36.1-.66,6.49-2.45,12-8.57,15.41-2.12,1.16-5.08,2-4.61,5.2.42,2.79,3.18,3.65,5.4,4.82,1.62.85,3.44,1.23,5,2.2a.74.74,0,0,1-.07,1.18c-1.81,1.74-5.91,2.31-4.43,5.81,1.3,3.05,4.85,3.05,7.87,3C232.48,234.37,235.45,231.17,236.83,221.61Z" transform="translate(-198.24 -109.69)"/><path class="cls-8" d="M293.24,349.77c-3.34-1.42-4.83-3.31-3.09-7.23,2.76-6.2,5-12.64,7.45-19,1-2.52,2.5-4.75,5.51-3.82,8.4,2.6,16.65-.56,25-.33a34.75,34.75,0,0,1-13.41-8.65c-5-5-13.07-4.58-19.52-7.36-2.08-.9-1.17,3.42-3.59,3.2C289,295.77,283,292,273.15,295.22c-5.25,2.46-10.34,5.06-10.22,12.06,3.57,2.93,6.53,6.66,10.91,8.56,3,1,4.16-2.27,6.56-2.77,1.1,1.65-.64,3.55.53,5.13-.23,1.82-1.55,3.54-3,2.94-6.12-2.46-6.69,2.24-8,5.85-3.17,8.53-6.19,17.13-9.3,25.69-1.44,3.95-.29,5.62,4,5,6.56-1,13.13-2.13,18.9-5.54A16.54,16.54,0,0,1,293.24,349.77Z" transform="translate(-198.24 -109.69)"/><path class="cls-9" d="M414.52,270.23c9.81-7.08,10.39-18.2,12.47-28.63.37-1.87-.71-1.8-2.39-1.82-8.31-.1-11.84-3.52-11.59-10.72s4.92-10.78,13.92-10.49c-.83-9-2.59-17.72-7.22-25.52-2-3.32-4.07-7.6-9.49-5.77-7.24,7.9-8.69,18-9.76,27.92-1.73,16.21,1.23,31.91,7.54,46.93C409.36,265.36,410.19,269.27,414.52,270.23Z" transform="translate(-198.24 -109.69)"/><path class="cls-10" d="M241.27,144.6c-8.22-5.64-10-8.63-9.17-17,5.61,9.83,13.93,14.73,22.89,18.77,4.85-2.5,9.7-4.94,15.29-5.3,3.92-.25,2.77-3.11,2.2-5-2.15-7.19-7.08-12.17-13.6-15.55-4.67-2.42-9.53-4.44-14.91-4.72-1.6-.75-3.16-1-4.56.4-.71,4.15-3.83,1.86-5.93,2.14-4.31.57-9.38-.39-10.53,5.84-1,11.55,5.81,17.74,15.25,22.1C239.94,147,241.35,147.17,241.27,144.6Z" transform="translate(-198.24 -109.69)"/><path class="cls-11" d="M223,124.17c5.33-6.68,12.11-4.53,18.68-2.81.87-2.31-1-3-1.88-4.2-3.94-2.87-8.2-2.41-12.53-1.21-14.46,7.17-16.7,20.13-16.31,34.34,3,10.16,6.23,20.26,9,30.48,1.69,6.31,3.12,12.79.59,19.31.25,5.3-2.77,8.67-7.2,10.43s-7.72-.49-10.12-4.37c-.85-1.38-2.53-2.71-4-1.64-2.07,1.53-.2,3.37.69,4.74,4.41,6.78,9.66,12.73,17,16,.1,2.13-1.3,1.82-2.3,2-1.28.24-3-.22-3.48,1.46-.59,1.91,1.13,2.83,2.22,3.89,6.31,6.13,12.74,6,23.39-.53l.09-10.5c-2.72,10.64-10.35,14.2-19.63,9,.46-.52.92-1,1.31-1.49,2.09-2.74,8.26-.28,7.87-4.62-.26-2.83-5.6-1.5-8.33-3-2.35-1.31-5.15-2-6.71-4.47,14.26-8.61,18-17.33,14-34.26-1.93-8.21-5-16.14-7.08-24.31C215.22,146.47,213.85,134.57,223,124.17Z" transform="translate(-198.24 -109.69)"/><path class="cls-8" d="M278.36,402c-1.33-10.89,3.4-21,4.05-31.67-8.22,2.08-16.46,4.08-25,3.14-2.58-.28-3.69.77-4.44,3.06-2.27,6.94-4.62,13.86-7.1,20.73-1.46,4,.91,4.07,3.73,4.11C259.17,401.53,268.76,401.78,278.36,402Z" transform="translate(-198.24 -109.69)"/><path class="cls-12" d="M268.65,194.11c3.3-18.22,13.42-31.93,28.16-42.61a16.22,16.22,0,0,0,2.26-2.47c-25.8,9.14-41.81,27.76-51.09,52.85A57.1,57.1,0,0,0,245,232C250.72,217.91,255.46,203.26,268.65,194.11Z" transform="translate(-198.24 -109.69)"/><path class="cls-13" d="M308.78,248c-5.12-11.65-11.42-22.83-10.42-36.38.52-6.89,2.14-13.47,3.34-20.19-13.52,3.59-18.22,9.83-18.79,25.18a43.64,43.64,0,0,0,2.53,16.14c1.94,5.56,3.39,11.3,11.81,9.82C301.64,241.8,304.69,246.61,308.78,248Z" transform="translate(-198.24 -109.69)"/><path class="cls-14" d="M319.64,261.64a141.58,141.58,0,0,0-20-13.82c-3.6-2.06-7-1.6-9.78,1.66s-6.59,6.05-3.33,11c6,3,12.82,2.52,19.12,4.41,4,1.2,7.78,4.09,12.4,2.94A5.09,5.09,0,0,0,319.64,261.64Z" transform="translate(-198.24 -109.69)"/><path class="cls-15" d="M414.52,270.23c-14.78-27-17.15-54.56-4.3-83-7.59,4.37-9.18,12.46-10.64,19.72a100.53,100.53,0,0,0,4.6,55.16C405.76,266.47,407.51,272.15,414.52,270.23Z" transform="translate(-198.24 -109.69)"/><path class="cls-16" d="M290.62,271.36c7.78,6.44,15.9,12.07,26.76,11.09,3.05-.28,6.18-1.31,7.32-4s-2.08-4.08-3.69-5.84c-2.61-4-6.83-4.91-11.1-5.73-4.82,0-9.65-.52-14.43,0C293.13,267.15,289.37,266.78,290.62,271.36Z" transform="translate(-198.24 -109.69)"/><path class="cls-17" d="M396.68,142.17a31.91,31.91,0,0,0-3.21,3.38c-3.51,4.91-2.8,7.06,3.1,7.2,9,.21,17.41,2,26.23,7.29-1.08-4.54-2.38-7.45-4.92-9.76C411.58,145.57,405.32,140.74,396.68,142.17Z" transform="translate(-198.24 -109.69)"/><path class="cls-18" d="M336.12,176.76c-3.73-1.47-.3-2.19.43-2.61A173.68,173.68,0,0,0,359.4,159c2.06-1.66,4.56-3.08,6-8.19-16.34,12.86-33.25,21.22-49.92,30Z" transform="translate(-198.24 -109.69)"/><path class="cls-19" d="M329.21,286.64l.58.11.59,0c4.26.29,8.73,2.35,12.49-1.48.73-4.72,3.88-8.08,6.77-11.63a12.12,12.12,0,0,0-6.57-2.2c-4.9-.24-15.57,8.26-15.86,12.72C327.13,285.41,328.32,286,329.21,286.64Z" transform="translate(-198.24 -109.69)"/><path class="cls-20" d="M278.16,191.73c10.17-10.52,24.77-16.95,31.12-33.75-5.46,3.1-7.49,7.53-11.72,8.9-.33,3.44-3.34,4.71-5.47,6.66C286.36,178.78,280.6,184,278.16,191.73Z" transform="translate(-198.24 -109.69)"/><path class="cls-21" d="M375.77,226.62c-.71-3.2-1.47-7-6.09-7.46-3.1-.32-8.22,6.23-7.93,10,.33,4.3,3.44,5.74,7.12,5.89S375.77,231.35,375.77,226.62Z" transform="translate(-198.24 -109.69)"/><path class="cls-22" d="M269,157.51c3.36-2.36,6.71-4.74,10.09-7.09,3.06-2.13,2.16-3.71-.79-4.63a17.56,17.56,0,0,0-15,2C261.72,153.07,263.47,156.41,269,157.51Z" transform="translate(-198.24 -109.69)"/><path class="cls-23" d="M329.21,286.64c-.4-1.24-1.85-2.75-.66-3.72,4.79-3.89,8.66-9,14.52-11.5l-8.2-2.81c-5.08-1.61-7.87.22-8.34,5.53,3.05,4.52,0,8.07-2.2,11.59A6.61,6.61,0,0,0,329.21,286.64Z" transform="translate(-198.24 -109.69)"/><path class="cls-24" d="M311.36,268.64l9.65,4,1.5-1.25c0-2.85-1.21-4.47-4.31-4.05-10.31-3.47-20.46-7.7-31.71-6.79.06,1,.11,2,.17,3,6.48,4.72,14.43,2.47,21.48,4.48C309.18,268.26,310.39,267.88,311.36,268.64Z" transform="translate(-198.24 -109.69)"/><path class="cls-25" d="M416.86,228.94c.31,4,1.51,7.17,5.51,7,4.48-.18,5.16-4,5.17-7.54,0-2.93-.28-6.62-4.31-6.55C418.75,221.93,417.46,225.58,416.86,228.94Z" transform="translate(-198.24 -109.69)"/><path class="cls-26" d="M269,157.51c-3.74-2.16-4.79-5.9-5.75-9.7-4.39,1.55-8.22,3.66-6.42,9.3C258.92,163.73,261.91,163.78,269,157.51Z" transform="translate(-198.24 -109.69)"/><path class="cls-27" d="M345.32,311.12a100.79,100.79,0,0,1-25.16-1.23C327.56,318.15,336.05,318.78,345.32,311.12Z" transform="translate(-198.24 -109.69)"/><path class="cls-28" d="M318.2,267.31a10.91,10.91,0,0,1,4.31,4.05l4,2.78c1.93-3.12,4.19-5.74,8.33-5.52l-15.22-7A9.75,9.75,0,0,0,318.2,267.31Z" transform="translate(-198.24 -109.69)"/><path class="cls-29" d="M396.68,142.17c7.7,1,13.92,6,21.19,8.1a27.44,27.44,0,0,0-7.74-8.52C405.6,138.48,401,137.76,396.68,142.17Z" transform="translate(-198.24 -109.69)"/><path class="cls-30" d="M311.36,268.64c-7.74-4.06-16.31-4.2-24.7-5.15-.63,3.61,2,5.56,4,7.87,1-3.83,4.24-2.67,6.65-2.78C302,268.36,306.66,268.6,311.36,268.64Z" transform="translate(-198.24 -109.69)"/><path class="cls-31" d="M280.93,318.2c.91-2.65,3.87-6.16,1.62-7.88-3-2.29-4.16,2.71-6.51,4a20.46,20.46,0,0,0-2.2,1.56C275.48,318.8,278.25,318.38,280.93,318.2Z" transform="translate(-198.24 -109.69)"/><path class="cls-32" d="M262.93,307.28c1.5-5.63,6.74-8.1,10.22-12.06l-1.77-1.64a24,24,0,0,0-10.93,11Z" transform="translate(-198.24 -109.69)"/><path class="cls-33" d="M432.72,226.44c2.64-.31,7.5,1.36,3.75-4.52-.46-.72,1.09-2.72,1.71-4.12-1.81-2.57-2.4-.2-3,.87-1.34,2.4-2.51,1.79-3.79,0C430.38,221.53,435.48,223.31,432.72,226.44Z" transform="translate(-198.24 -109.69)"/><path class="cls-34" d="M227.22,116a35.34,35.34,0,0,1,12.53,1.21c1.07-1.52,2.83-.88,4.22-1.37-4.48-3-10,.29-14.57-2.45C227.55,113.28,227.16,114.42,227.22,116Z" transform="translate(-198.24 -109.69)"/><path class="cls-35" d="M311.26,287.71c-1.93,4.43,2.44,3.24,4,4.52,1-1.93,3.11-1,4.6-1.67Z" transform="translate(-198.24 -109.69)"/><path class="cls-23" d="M342.87,285.25c-3.93,2.47-8.34.82-12.49,1.48C334.68,287.33,339.36,291.24,342.87,285.25Z" transform="translate(-198.24 -109.69)"/><path class="cls-36" d="M241.27,144.6c-.64,1.26-1.84,1.48-3.07,1.67,3,1.93,6.28,2.3,10.58,2.64A16.88,16.88,0,0,0,241.27,144.6Z" transform="translate(-198.24 -109.69)"/><path class="cls-37" d="M804.46,301.47c26,6.67,8.82,59.42-8.31,67s-235.52-15.34-245.06-24.26c-7.28-6.81-17.92-27.75-7.27-52.49.94-2.18-44.08-9.47-42.79-11.71s48.82.68,50.45-1.54a89.46,89.46,0,0,1,9.16-10.58S648.81,261.65,804.46,301.47Z" transform="translate(-198.24 -109.69)"/><path d="M582.67,305.64l-1.94.15a32.28,32.28,0,0,0-.59-3.56l-4.18.38-.74,2.86-1.94-.31,2.39-9.17c0-.08.08-.29.19-.63l4.53-.54c.44,1.78.88,3.58,1.33,5.38A36.59,36.59,0,0,1,582.67,305.64Zm-3-5.34c-.06-.22-.33-1.33-.82-3.33l-1.52.18-.89,3.44Z" transform="translate(-198.24 -109.69)"/><path d="M593,304.65c-.13,1.65-.74,2.57-1.82,2.75a17,17,0,0,1-3.85,0,4.68,4.68,0,0,1-3.06-1c-.5-.56-.68-1.6-.56-3.14a34.53,34.53,0,0,1,.92-4.9c.1-.42.24-1.05.41-1.88l1.93.2a17.76,17.76,0,0,1-.43,2.11c-.21.86-.41,1.73-.61,2.6a19.39,19.39,0,0,0-.44,2.63c0,.5,0,.82.12.94a2.83,2.83,0,0,0,1.72.49l.47,0h.35c.21,0,.69,0,1.42,0a6.41,6.41,0,0,0,1.26-.06,1.7,1.7,0,0,0,.25-.93,19.69,19.69,0,0,0-.14-3.7c-.25-2.22-.39-3.44-.4-3.66l2-.09c0,.19.06.76.18,1.72A32.67,32.67,0,0,1,593,304.65Z" transform="translate(-198.24 -109.69)"/><path d="M604.15,306.36l-.64,1.85L597.19,306l0,1.93-2,0-.1-10.77c1.49,0,2.64,0,3.45.07q5.58.45,5.28,4.23c-.12,1.44-1.4,2.58-3.86,3.42Zm-2.19-5c.09-1.21-1-1.91-3.29-2.1l-1.54-.07,0,4.58Q601.86,302.55,602,301.36Z" transform="translate(-198.24 -109.69)"/><path d="M619.49,309.48h-2c0-.87,0-2.18,0-3.92l-4.16.22c0,.9,0,2,0,3.21h-2c-.07-3.74-.07-7.07,0-10l2,.05c0,1.17-.06,2.76,0,4.75l4.18-.22c0-1.83,0-3.43.06-4.81l1.94.06c0,1.4-.06,3.17,0,5.32C619.49,307.39,619.5,309.16,619.49,309.48Z" transform="translate(-198.24 -109.69)"/><path d="M629.91,309.43l-1.95.16a32.11,32.11,0,0,0-.58-3.57l-4.19.38-.73,2.87-2-.32,2.4-9.17c0-.08.08-.29.18-.63l4.54-.54q.64,2.68,1.32,5.38A38.14,38.14,0,0,1,629.91,309.43Zm-3-5.33c-.06-.23-.34-1.34-.83-3.33l-1.52.18-.89,3.44Z" transform="translate(-198.24 -109.69)"/><path d="M639.89,310.23l-1.95.16a32,32,0,0,0-.58-3.56l-4.19.37-.73,2.87-2-.31,2.4-9.18a5.21,5.21,0,0,1,.18-.63l4.53-.54q.66,2.68,1.33,5.38A38.38,38.38,0,0,1,639.89,310.23Zm-3-5.33c-.06-.23-.34-1.34-.83-3.33l-1.52.18-.89,3.44Z" transform="translate(-198.24 -109.69)"/><path d="M649.12,312.35l-1.87.36q-.68-1.29-2.21-3.81t-2.2-3.82a26.32,26.32,0,0,0,.41,6.38l-1.92.33a35.59,35.59,0,0,1-.27-9.05c0-.44.08-.9.13-1.39,1.06.09,1.78.14,2.16.16a31.58,31.58,0,0,0,1.63,3.42q.18.35,2.38,3.95c.07-2.38.07-4.55,0-6.49l1.94-.11A84,84,0,0,1,649.12,312.35Z" transform="translate(-198.24 -109.69)"/><path d="M665.49,310q-.15,1.9-3.26,3.1a9.88,9.88,0,0,1-3.54.6l0-1.95a8.85,8.85,0,0,0,2.45-.35,4.35,4.35,0,0,0,2.12-1.11.62.62,0,0,0,.2-.32c0-.31-.46-.54-1.46-.71q-.39-.06-1.83-.18c-3-.24-4.38-1.16-4.25-2.78a3.17,3.17,0,0,1,1.76-2.38,10.54,10.54,0,0,1,2.93-1.14,10.89,10.89,0,0,1,3.25-.21q.67.06,1.35.18l-.37,1.92c-.33-.06-.68-.11-1.05-.14a7.63,7.63,0,0,0-5.32,1.21c-.3.25-.47.45-.48.61a.49.49,0,0,0,0,.12c.14.3.69.5,1.67.6,1.9.2,2.86.31,2.88.32a4.19,4.19,0,0,1,2.44,1.12A2,2,0,0,1,665.49,310Z" transform="translate(-198.24 -109.69)"/><path d="M675.87,312.77a14.63,14.63,0,0,1-4.67.5,5.09,5.09,0,0,1-4.38-2.48,6.13,6.13,0,0,1-.82-3.58,4.87,4.87,0,0,1,1.89-3.55,5.34,5.34,0,0,1,3.92-1.22,5.21,5.21,0,0,1,3.69,2l-1.5,1.24a3.41,3.41,0,0,0-2.43-1.29,3.34,3.34,0,0,0-2.45.77,3,3,0,0,0-1.22,2.19,2.69,2.69,0,0,0,0,.63,3.49,3.49,0,0,0,3.5,3.38,12.77,12.77,0,0,0,4-.49Z" transform="translate(-198.24 -109.69)"/><path d="M684.73,314.72h-2c0-.87,0-2.18,0-3.92l-4.16.23c0,.89,0,2,0,3.2h-2c-.07-3.74-.07-7.07,0-10l2,.05c-.05,1.17-.06,2.76,0,4.75l4.18-.22c0-1.83,0-3.43,0-4.8l2,0c0,1.4-.06,3.17,0,5.32C684.73,312.63,684.73,314.4,684.73,314.72Z" transform="translate(-198.24 -109.69)"/><path d="M698,309a5.88,5.88,0,0,1-2.36,4.32,6.67,6.67,0,0,1-4.8,1.45,4.72,4.72,0,0,1-3.54-1.88,5.4,5.4,0,0,1-1.1-3.9,5.91,5.91,0,0,1,2.36-4.25,6.46,6.46,0,0,1,4.68-1.54,4.91,4.91,0,0,1,3.58,1.87A5.35,5.35,0,0,1,698,309Zm-2-.14a3.5,3.5,0,0,0-.7-2.52,3.08,3.08,0,0,0-2.26-1.19,4.52,4.52,0,0,0-3.23,1.07,4.15,4.15,0,0,0-1.7,2.93,3.55,3.55,0,0,0,.66,2.53,2.92,2.92,0,0,0,2.24,1.14,4.7,4.7,0,0,0,3.33-1A4,4,0,0,0,696,308.81Z" transform="translate(-198.24 -109.69)"/><path d="M710.68,310a5.87,5.87,0,0,1-2.35,4.32,6.69,6.69,0,0,1-4.81,1.45,4.72,4.72,0,0,1-3.54-1.88,5.44,5.44,0,0,1-1.1-3.9,5.92,5.92,0,0,1,2.37-4.25,6.43,6.43,0,0,1,4.68-1.54A4.89,4.89,0,0,1,709.5,306,5.35,5.35,0,0,1,710.68,310Zm-1.95-.14a3.5,3.5,0,0,0-.71-2.52,3,3,0,0,0-2.26-1.19,4.53,4.53,0,0,0-3.23,1.07,4.13,4.13,0,0,0-1.69,2.93,3.59,3.59,0,0,0,.65,2.53,2.93,2.93,0,0,0,2.25,1.14,4.7,4.7,0,0,0,3.33-1A4,4,0,0,0,708.73,309.83Z" transform="translate(-198.24 -109.69)"/><path d="M719.26,316.1a16,16,0,0,1-3.71.66,24.26,24.26,0,0,1-3.7-.09l.25-10.23,1.94.05-.18,8.38a15.31,15.31,0,0,0,4.86-.64Z" transform="translate(-198.24 -109.69)"/><path d="M737.56,318.17l-1.83.67a36.74,36.74,0,0,1-1.81-6.45,1.13,1.13,0,0,1-.07.2,24.28,24.28,0,0,1-2.15,4.63l-1.6-.44a33.38,33.38,0,0,1-1.54-5.45,32.69,32.69,0,0,0-2,6.35l-1.9-.39a39.51,39.51,0,0,1,3.38-9.6l1.84.29a45.27,45.27,0,0,0,1.3,6,36.57,36.57,0,0,0,2-6.54l1.92.12A42.57,42.57,0,0,0,737.56,318.17Z" transform="translate(-198.24 -109.69)"/><path d="M745.22,319.06l-2,.29a8.86,8.86,0,0,1-2,.1c-1.49-.12-2.36-.2-2.63-.26.08-2.37.15-5.88.22-10.51l6.32.21-.07,2-4.34-.14-.06,2.66,4.27,0v2l-4.32,0,0,2a5,5,0,0,0,.56.06,19.63,19.63,0,0,0,3.87-.26Z" transform="translate(-198.24 -109.69)"/><path d="M753.19,319.77l-5.77.07,0-1.93,1.5,0a1.76,1.76,0,0,1,0-.46c0-.4,0-.93,0-1.58,0-.93,0-1.46,0-1.59,0-1,0-2,0-3.11l-2.09,0,0-2,6.43,0v2h-2.38c0,1.13,0,2.18,0,3.16,0,.69,0,1.71,0,3.08,0,.1,0,.26,0,.47l2.3,0Z" transform="translate(-198.24 -109.69)"/><path d="M762.92,321.49l-1.86.36c-.46-.86-1.19-2.13-2.21-3.81s-1.76-3-2.21-3.82a25.85,25.85,0,0,0,.42,6.38l-1.93.33a36.1,36.1,0,0,1-.26-9.05c0-.44.08-.9.13-1.38l2.16.15a29.19,29.19,0,0,0,1.62,3.42c.12.23.92,1.55,2.38,3.95q.12-3.57,0-6.49l1.94-.1A81.84,81.84,0,0,1,762.92,321.49Z" transform="translate(-198.24 -109.69)"/><path d="M557.86,320.68l-.86,0c0,.86,0,2.14-.06,3.86a17.66,17.66,0,0,1-5.56.68,5.11,5.11,0,0,1-4.36-2.49,6.23,6.23,0,0,1-.85-3.66,4.92,4.92,0,0,1,1.92-3.6,5.41,5.41,0,0,1,4-1.23,5.13,5.13,0,0,1,1.9.52l-.86,1.75a3.4,3.4,0,0,0-1.17-.32,3.68,3.68,0,0,0-2.54.74,3,3,0,0,0-1.27,2.92,3.57,3.57,0,0,0,3.54,3.48A12,12,0,0,0,555,323l0-2.22-4.39.24-.11-1.95,7.2-.39Z" transform="translate(-198.24 -109.69)"/><path d="M568,324c-.13,1.64-.74,2.56-1.82,2.74a16.38,16.38,0,0,1-3.85,0,4.62,4.62,0,0,1-3.06-1,4.35,4.35,0,0,1-.56-3.13,35.86,35.86,0,0,1,.92-4.91c.1-.42.24-1.05.41-1.88l1.94.21c0,.28-.17,1-.44,2.1-.2.86-.41,1.73-.6,2.61a17.62,17.62,0,0,0-.44,2.62,1.5,1.5,0,0,0,.11,1,2.84,2.84,0,0,0,1.72.48,3.94,3.94,0,0,0,.47,0h.35c.22,0,.69,0,1.42,0a7,7,0,0,0,1.26-.05,1.74,1.74,0,0,0,.25-.94,19.57,19.57,0,0,0-.14-3.69c-.25-2.22-.38-3.45-.4-3.67l2-.08a16.71,16.71,0,0,0,.17,1.72A32.63,32.63,0,0,1,568,324Z" transform="translate(-198.24 -109.69)"/><path d="M577.59,328l-1.87.36q-.68-1.29-2.21-3.81c-1-1.67-1.75-3-2.2-3.82a25.83,25.83,0,0,0,.41,6.38l-1.92.34a35.69,35.69,0,0,1-.27-9.06c0-.44.08-.9.13-1.38,1.06.08,1.78.14,2.16.15a31,31,0,0,0,1.63,3.43c.12.23.91,1.54,2.38,3.95.07-2.39.07-4.55,0-6.5l1.94-.1A83.87,83.87,0,0,1,577.59,328Z" transform="translate(-198.24 -109.69)"/><path d="M588.25,323.26a4,4,0,0,1-2.29,3.42,7.49,7.49,0,0,1-4.22.76c-.53,0-1.28-.15-2.26-.3,0-2.41,0-6,0-10.71a14,14,0,0,1,2.62.05,6.65,6.65,0,0,1,4.38,2.25A5.79,5.79,0,0,1,588.25,323.26Zm-2-.14a3.92,3.92,0,0,0-1.4-3.21,5.08,5.08,0,0,0-3.22-1.49l-.19,0q0,4.25,0,7.05l.37,0a6.11,6.11,0,0,0,2.81-.28A2.35,2.35,0,0,0,586.3,323.12Z" transform="translate(-198.24 -109.69)"/><path d="M598.33,328.28l-1.94.16a32.28,32.28,0,0,0-.59-3.56l-4.18.37-.74,2.87-2-.31,2.4-9.17q0-.12.18-.63l4.54-.55c.43,1.79.88,3.59,1.32,5.39A35.61,35.61,0,0,1,598.33,328.28Zm-3-5.33c-.06-.23-.34-1.34-.83-3.33l-1.51.18-.89,3.44Z" transform="translate(-198.24 -109.69)"/><path d="M614,327.64a3,3,0,0,1-2.44,2.61,10.91,10.91,0,0,1-3.87.28c-.7-.06-1.55-.16-2.55-.33q0-3.49,0-10.51a26.33,26.33,0,0,1,4.23-.33,5.23,5.23,0,0,1,2.53.81,2.35,2.35,0,0,1,1.21,2.27,3,3,0,0,1-1.28,2.07,3.17,3.17,0,0,1,1.64,1.2A2.89,2.89,0,0,1,614,327.64Zm-2-.21c.06-.77-.66-1.21-2.16-1.33a24.8,24.8,0,0,0-2.77,0c0,.16,0,.56,0,1.19s0,.9,0,1.21l.51.06a12.39,12.39,0,0,0,2.53,0C611.35,328.39,612,328,612,327.43Zm-.84-5.18c0-.47-.59-.76-1.9-.87a13.87,13.87,0,0,0-2.18.05v2.72a7.13,7.13,0,0,0,3-.85C610.82,322.91,611.17,322.56,611.19,322.25Z" transform="translate(-198.24 -109.69)"/><path d="M623.49,331.19h-2c0-.87,0-2.18,0-3.92l-4.16.23c0,.89,0,2,0,3.2h-2c-.07-3.74-.07-7.07,0-10l2,0c0,1.18-.06,2.76,0,4.75l4.18-.22c0-1.83,0-3.43.06-4.8l1.94.05c0,1.4-.06,3.17,0,5.32C623.49,329.1,623.5,330.87,623.49,331.19Z" transform="translate(-198.24 -109.69)"/><path d="M631.81,331.41l-5.76.07,0-1.93,1.5,0a1.76,1.76,0,0,1,0-.46c0-.4,0-.93,0-1.58,0-.93,0-1.46,0-1.59,0-1,0-2,0-3.11l-2.09,0,0-2,6.43,0v2h-2.37c0,1.13,0,2.18,0,3.16,0,.69,0,1.71,0,3.08a3.57,3.57,0,0,0,0,.47l2.3,0Z" transform="translate(-198.24 -109.69)"/><path d="M647.32,324.7l-3.3.13-.17,8.38-2,0,.18-8.26-2.83.11-.06-1.94,8.07-.31Z" transform="translate(-198.24 -109.69)"/><path d="M656.55,333.85h-2c0-.87,0-2.18,0-3.92l-4.16.22c0,.89,0,2,0,3.21h-2c-.07-3.75-.07-7.07,0-10l1.95.05c0,1.18-.06,2.77,0,4.76l4.18-.23c0-1.82,0-3.43.06-4.8l1.94,0c0,1.4,0,3.18,0,5.33Q656.55,333.36,656.55,333.85Z" transform="translate(-198.24 -109.69)"/><path d="M664.89,334l-2,.29a9.52,9.52,0,0,1-2,.1c-1.49-.12-2.37-.21-2.63-.26.07-2.38.15-5.88.22-10.52l6.32.21-.07,2-4.34-.15-.06,2.66,4.27,0v2l-4.32,0-.06,2,.57.06a19.63,19.63,0,0,0,3.87-.26Z" transform="translate(-198.24 -109.69)"/><path d="M679.47,334.3a17.28,17.28,0,0,1-3.71.66,27.18,27.18,0,0,1-3.7-.09l.25-10.24,1.94.06-.18,8.37a15.24,15.24,0,0,0,4.85-.63Z" transform="translate(-198.24 -109.69)"/><path d="M686.64,335.81l-5.77.08,0-1.93,1.5,0a1.68,1.68,0,0,1,0-.45c0-.41,0-.93,0-1.59,0-.93,0-1.46,0-1.58,0-1,0-2,0-3.12l-2.09,0,0-2,6.43,0v2l-2.37,0c0,1.12,0,2.17,0,3.16,0,.68,0,1.71,0,3.07,0,.11,0,.26,0,.47l2.31,0Z" transform="translate(-198.24 -109.69)"/><path d="M696.36,328.64l-3.31.13-.16,8.38-2,0,.18-8.26-2.83.11,0-1.94,8.07-.31Z" transform="translate(-198.24 -109.69)"/><path d="M704.18,337.15l-2,.3a9.49,9.49,0,0,1-2,.1c-1.49-.12-2.36-.21-2.62-.27q.1-3.55.21-10.51l6.32.21-.07,2-4.34-.14-.05,2.66,4.26,0v2h-4.32l-.05,2,.57.07a19.7,19.7,0,0,0,3.86-.27Z" transform="translate(-198.24 -109.69)"/><path d="M718.76,337.45a16.61,16.61,0,0,1-3.7.66,24.24,24.24,0,0,1-3.7-.09l.24-10.23,1.95,0-.19,8.38a15.28,15.28,0,0,0,4.86-.64Z" transform="translate(-198.24 -109.69)"/><path d="M726,338.9l-2,.29a9,9,0,0,1-2,.11c-1.49-.12-2.37-.21-2.63-.27.08-2.37.15-5.88.22-10.51l6.32.21-.07,2-4.34-.14-.06,2.66,4.27,0v2l-4.32,0-.06,2,.57.07a20.67,20.67,0,0,0,3.87-.27Z" transform="translate(-198.24 -109.69)"/><path d="M741.05,332.23l-3.3.13-.17,8.38-2-.05.17-8.26-2.83.11-.05-1.94,8.07-.31Z" transform="translate(-198.24 -109.69)"/><path d="M751.26,338.76c-.13,1.65-.74,2.56-1.82,2.74a16.38,16.38,0,0,1-3.85,0,4.62,4.62,0,0,1-3.06-1c-.49-.55-.68-1.6-.55-3.13a34.26,34.26,0,0,1,.91-4.91c.11-.42.24-1,.41-1.88l1.94.21c0,.29-.17,1-.43,2.1-.21.86-.41,1.73-.61,2.61a17.83,17.83,0,0,0-.44,2.62c0,.51,0,.83.12.95a2.83,2.83,0,0,0,1.71.49l.47,0h.35c.22,0,.69,0,1.42,0a6.86,6.86,0,0,0,1.26-.05,1.71,1.71,0,0,0,.25-.94,19.62,19.62,0,0,0-.14-3.69c-.25-2.22-.38-3.44-.4-3.66l2-.09a16.46,16.46,0,0,0,.17,1.72A31.7,31.7,0,0,1,751.26,338.76Z" transform="translate(-198.24 -109.69)"/><path d="M766.74,342.7h-2c0-.87,0-2.18,0-3.92l-4.16.22c0,.9,0,2,0,3.21h-2q-.1-5.61,0-10l2,.06c-.05,1.17-.06,2.76,0,4.75l4.18-.22c0-1.83,0-3.43.06-4.81l1.94.05c0,1.41,0,3.18,0,5.33C766.73,340.6,766.74,342.38,766.74,342.7Z" transform="translate(-198.24 -109.69)"/><path d="M775.08,342.85l-2,.29a8.88,8.88,0,0,1-2,.1c-1.49-.12-2.37-.21-2.63-.26.08-2.38.15-5.88.22-10.52l6.32.22-.07,2-4.34-.14-.06,2.66,4.27,0v2l-4.32,0-.06,2a5.23,5.23,0,0,0,.57.06,19.63,19.63,0,0,0,3.87-.26Z" transform="translate(-198.24 -109.69)"/><path d="M784.46,344.12h-2c0-.87,0-2.17,0-3.92l-4.16.23c0,.89,0,2,0,3.2h-2c-.07-3.74-.07-7.07,0-10l2,0c-.05,1.18-.06,2.76,0,4.75l4.18-.22q0-2.75.06-4.8l1.94.05c0,1.4-.06,3.17,0,5.32C784.46,342,784.47,343.8,784.46,344.12Z" transform="translate(-198.24 -109.69)"/><path d="M792.81,344.27l-2,.29a9,9,0,0,1-2,.11c-1.48-.12-2.36-.21-2.62-.27.07-2.37.15-5.88.22-10.51l6.32.21-.07,2-4.35-.14-.05,2.66,4.27,0v2l-4.32,0-.05,2,.57.07a20.67,20.67,0,0,0,3.87-.27Z" transform="translate(-198.24 -109.69)"/></svg>