<svg id="Layer_1" data-name="Layer 1" xmlns="http://www.w3.org/2000/svg" viewBox="0 0 657.35 322.1"><defs><style>.cls-1{fill:#010306;}.cls-2{fill:#fafafb;}.cls-3{fill:#0a143e;}.cls-4{fill:#577fda;}.cls-5{fill:#fefefe;}.cls-6{fill:#fcfdfd;}.cls-7{fill:#b6bbd3;}.cls-8{fill:#225dd0;}.cls-9{fill:#3861c2;}.cls-10{fill:#4b81e1;}.cls-11{fill:#c7ccdc;}.cls-12{fill:#5886e0;}.cls-13{fill:#b4bbd0;}.cls-14{fill:#cbe0e1;}.cls-15{fill:#506dc2;}.cls-16{fill:#4966bc;}.cls-17{fill:#0c133a;}.cls-18{fill:#162548;}.cls-19{fill:#101010;}.cls-20{fill:#c1ddd6;}.cls-21{fill:#c0c1d5;}.cls-22{fill:#f0f4f6;}.cls-23{fill:#4862b4;}.cls-24{fill:#3d7ff1;}.cls-25{fill:#aeb2c5;}.cls-26{fill:#404040;}.cls-27{fill:#fff;stroke:#1d1e1c;stroke-miterlimit:10;stroke-width:2px;}</style></defs><title>3</title><path class="cls-1" d="M635.74,382.72H621.89a6.09,6.09,0,0,1-1.7-5.39c2.14-6.72,5.91-12.78,7.89-19.56,5-7.59,6-13.78-4.85-17.17-4.29-1.34-7.52-4.78-10.18-8.5a13.49,13.49,0,0,1-1.51-3.3c-.33-1.11-.64-2.25-1-3.35-4.84-5.45-10.81-2.55-16.4-2.23a31,31,0,0,1-3.52.95,33.14,33.14,0,0,1-5.33.72c-3.91.29-8.06-.25-11.11,3.16-8.49,10.21-13.86,22.44-21.69,33a55.82,55.82,0,0,0-5.51,9.5,22.76,22.76,0,0,1-11,12.13H524.93c-4.24-6.51.58-11.44,3.33-16.33,6.08-10.8,12.58-21.37,19.07-31.94,2.43-4,4.77-7.19-.17-11.86-15-14.18-14.63-23.15.34-37.18a55.56,55.56,0,0,1,5.44-4.21c15.36-11.16,19.21-8.82,1.78-25.81-25.08-34.34-22.82-69.43-2.93-105,3.14-4.31,6.07-8.81,9.8-12.68,5.92-5.72,11.72-11.57,17.47-17.46a107.78,107.78,0,0,1,22.5-15.13c5.61-2.63,11-5.78,16.71-8.17,38.89-12.73,77-13.44,113.82,7.12a106.77,106.77,0,0,1,30,25.51c1.67,2.32,3.24,4.7,4.87,7.06,19.71,33.15,19.95,66.25-.24,99.3-2.07,3-3.89,6.43-6.65,8.79-10.65,9.1-16.1,18.69-13.6,34.31,2.62,16.32-7.82,21.05-22.66,12.36-18.38-10.75-23.53-9.63-34.69,7.62-4,4.39-2.86,9.57-1.78,14.45,2.93,13.27,2.54,26.56,1.07,39.9a68.4,68.4,0,0,1-3.16,10.54c-6,14-17.69,17.21-28.22,6.31-8.7-9-12.17-6.72-15.16,3.53A19.64,19.64,0,0,1,635.74,382.72Z" transform="translate(-124.45 -60.62)"/><path class="cls-2" d="M614.6,324.42a2,2,0,0,0-1.33,2.17c-3.36,12.85-10.4,24.05-16.37,35.68-3.36,6.55-5.62,13.11-5.49,20.45H536q4.26-6.86,8.53-13.71c7.76-5.56,21.19-2.15,24.15-15.3,6.59-11.34,11.37-24,22.68-31.95l0,0C599.33,321,607.67,316.65,614.6,324.42Z" transform="translate(-124.45 -60.62)"/><path class="cls-3" d="M591.41,382.72c-1.86-3.16-7.81-3.58-3.85-10.34,8.83-15.09,15.23-31.58,25.71-45.79l.45,4.27c2.48,3.19,1,6.2-.37,9.23-6.08,11.6-14.8,22-16.29,35.66.38,2.33,1.52,4.68-.11,7Z" transform="translate(-124.45 -60.62)"/><path class="cls-4" d="M597,382.72l-3.47-5.41c3.12-3,6.78-2.16,10.42-1.5,6.3,1.17,13-2.12,19.08,1.44q-.56,2.75-1.09,5.47Z" transform="translate(-124.45 -60.62)"/><path class="cls-5" d="M635.22,280.56c-43.54-2.86-73.87-23.93-83.51-58-8.11-28.72,3-64,26.85-84,3.37,10.5,2.14,19.19-4.88,27.81-6.33,7.77-12.4,16-15.89,25.68-1,2.83-1.27,5.68,2,6.92,2.84,1.1,3.88-1.8,5-3.6,5.34-8.34,10.55-16.77,16.65-26.51,5,27.82,5,27.82,11.53,35.83,5.48-4.56,3.11-10,1.59-15.21-6.21-21.39-5.82-41.21,12.54-57.3,1.62-1.41,4.33-3.69,2.1-8.39L588.52,146.1c-5.39-9.86-3.31-16.26,5.83-22.57,40.16-27.75,98-30.77,132.63-6.23,22.95,33.33,24.73,66.88,4.95,96.22-2.44,3.63-4.1,8.52-9.89,8.3-20.84-10.51-23.4-32.42-31.63-50.78-2.49-5.57,3-7,5.58-9.65,6.69-7,16.4-11.22,20.94-23-13.65,3.68-20.33,14.79-31.25,19.43-6.48-8.9-6.46-22-18.81-28.75.06,9.18,3.44,16.19,6.77,22.64,5.3,10.26,2,16.53-6.41,22.78-8.67,6.43-17.81,12.79-23.78,25.7,16.58-5,25.46-17.4,38.2-25.47,3.69,9.92,7.11,19.1,10.86,29.14-27.49-3.77-53.16-2.31-77.79,8.22,13.07,5.79,14.57,27.09,2,36.83,20.24,6.56,41.38,8.73,60.5,17.62a2.84,2.84,0,0,1-.13,3.64c-5.08,3.54-11.09,5.38-16.18,8.92C652.55,283.26,643.87,281.75,635.22,280.56Z" transform="translate(-124.45 -60.62)"/><path class="cls-6" d="M635.67,233.36c-9.76-21.6-9.76-21.6,15.13-25.91,51.39-8.89,87.91,24.06,83.81,77.51-30.47-22.21-65.29-30.46-101.93-35.79,2.36-4.21,4.12-7.32,5.87-10.43,8.06-5.59,15.4,1.3,23.12,1.34,9.89,2.77,20.49,3.1,29.82,7.95-8.46-4-17.69-5.24-26.71-7.33C655.09,238.2,645,237.13,635.67,233.36Z" transform="translate(-124.45 -60.62)"/><path class="cls-7" d="M722,221.82q35.26-45.31,7.15-95.38c-1.48-2.63-1.51-6.07-2.21-9.14,21.76,12.07,35,30.16,38.79,54.91,1.18,13-1.1,25.85-2.71,38.69-2.25,11.27-8.28,20.37-16.21,28.39-6,4.33-10,.24-14.19-3.31Z" transform="translate(-124.45 -60.62)"/><path class="cls-8" d="M623,377.25c-6.53,3.06-13.46,3.05-20.44,2.68-1.69-3.62-.92-7.24.64-10.53C608.11,359,612.89,348.47,615,337c2.49-.5,4.22,1.37,6.29,1.93,11.43,3.05,14.2,9.77,9.21,20.18C630.1,366,625.93,371.39,623,377.25Z" transform="translate(-124.45 -60.62)"/><path class="cls-9" d="M633.62,289.33c2.89,3,6.5,1.51,9.85,1.55,12.9.16,15.76,4.18,11.74,16.72-.82,2.57-2.39,5-2.7,7.62-.65,5.47-1.82,10.83-8.7,9.27-7.65-1.73-3.29-6.49-1.6-10.45,1.91-4.5.06-8.34-3.56-10.76-3.18-2.13-6.3-3.76-5.7-8.27C631.25,292.89,630.49,290.88,633.62,289.33Z" transform="translate(-124.45 -60.62)"/><path class="cls-10" d="M548.9,360.49l23.21-35.86c5-1.22,7.12,2.46,9.45,5.74-1.07,9.78-9.3,16.22-11.88,25.32C559.71,370.33,557.47,370.85,548.9,360.49Z" transform="translate(-124.45 -60.62)"/><path class="cls-11" d="M635.22,280.56c8.46-2.5,18.57,2.71,25.79-5.54,5.64,1,10.66-1.94,16-2.61,2.91-.36-.6-2.35-.08-3.64.06-.75.14-1.49.24-2.24,7.49.41,13.86,3.94,24,8.43C677.35,281.24,656.73,285,635.22,280.56Z" transform="translate(-124.45 -60.62)"/><path class="cls-12" d="M605.24,299l-16.39,1.57c6.4-19,9.29-20.68,19.7-11.82C611.22,293.38,608.46,296.25,605.24,299Z" transform="translate(-124.45 -60.62)"/><path class="cls-13" d="M633.62,289.33q-.35,2.85-.67,5.68c-3.27,6-8.62,5.06-14,4.25-3.91-2.56-9.67-3.66-8.21-10.44C618.52,283.75,626,290.71,633.62,289.33Z" transform="translate(-124.45 -60.62)"/><path class="cls-14" d="M662.33,313.3c4.66,9.93,2.29,18.36,3.32,27.74C648.64,333.07,659.31,323.9,662.33,313.3Z" transform="translate(-124.45 -60.62)"/><path class="cls-15" d="M682.53,290.32c-4.66,5.62-11.54,5.94-16.74,9.16-3.88,2.4-6.29-.28-7.52-3.2-2-4.85,1.89-5.67,5.09-5.18C669.57,292,675.4,286.76,682.53,290.32Z" transform="translate(-124.45 -60.62)"/><path class="cls-16" d="M630.53,359.12c4.26-14.9-7-17.18-16.79-20.64a1.76,1.76,0,0,1-3-.11c1-2.5,2-5,3-7.51,3.86,2.38,7.43,5.56,11.61,7C638.61,342.38,638.12,349.75,630.53,359.12Z" transform="translate(-124.45 -60.62)"/><path class="cls-17" d="M568,354.82l12.58-24.74c-.63-4.13,2.18-6.14,5-8.13l5.81-.19q-10,16.61-20,33.21A2.34,2.34,0,0,1,568,354.82Z" transform="translate(-124.45 -60.62)"/><path class="cls-18" d="M568,354.82l3.45.15c-2.79,16.5-15.25,14.48-26.87,14q2.18-4.26,4.36-8.52C559.09,371.52,562.94,361.19,568,354.82Z" transform="translate(-124.45 -60.62)"/><path class="cls-19" d="M662.79,241.87c-8.34,1-15.78-5.05-24.24-3.13l-2.88-5.38c10.48,0,20.28,3.65,30.38,5.69C666.46,241.72,665.74,243.09,662.79,241.87Z" transform="translate(-124.45 -60.62)"/><path class="cls-20" d="M580.53,289.12c-3.7,5.6-4.77,14.87-15.81,12.6C568.47,294.91,574.48,292,580.53,289.12Z" transform="translate(-124.45 -60.62)"/><path class="cls-21" d="M732.66,236l14.19,3.31-7.19,9.9C734.93,245.45,734.73,240.22,732.66,236Z" transform="translate(-124.45 -60.62)"/><path class="cls-22" d="M610.79,288.82,619,299.26,605.24,299l3.3-10.25A14,14,0,0,1,610.79,288.82Z" transform="translate(-124.45 -60.62)"/><path class="cls-23" d="M585.56,322c-.93,3.17-1.94,6.29-5,8.13-4.28.47-5.63-3.61-8.42-5.45C575.7,319.22,581.05,322.7,585.56,322Z" transform="translate(-124.45 -60.62)"/><path class="cls-17" d="M614.6,324.42c-7-7.23-15.6-.57-23.18-2.7,6.92-5.36,14.84-2.72,22.33-2.4C616.58,319.43,616.51,322.31,614.6,324.42Z" transform="translate(-124.45 -60.62)"/><path class="cls-24" d="M610.73,338.37l3,.11c3.76,4.59,4.12,8.89,1,14.5-4.74,8.62-8.22,17.93-12.24,26.95l-9.06-2.62c-2.67-9.9,5.24-15.94,8.74-23.54C604.66,348.45,607.87,343.49,610.73,338.37Z" transform="translate(-124.45 -60.62)"/><path class="cls-25" d="M677,268.77l8.19,4.88c-9.49.49-16.06,7.29-24.16,1.37C666.09,272.3,670.67,268.32,677,268.77Z" transform="translate(-124.45 -60.62)"/><path class="cls-26" d="M662.79,241.87l3.26-2.82c9.65,2.14,19.49,3.65,28.18,9.14C683.54,247.13,672.83,246.3,662.79,241.87Z" transform="translate(-124.45 -60.62)"/><path class="cls-27" d="M141.72,155.5c-31.72-8.24-10.83-80.35,10-91.17S438.63,77.88,450.27,89.69c8.88,9,21.88,37.09,8.93,71-1.14,3,53.71,11.5,52.14,14.57s-59.47.58-61.45,3.65a122.08,122.08,0,0,1-11.14,14.64S331.37,204.74,141.72,155.5Z" transform="translate(-124.45 -60.62)"/><path d="M168.42,100.11c-.06,1.31-1,2.32-2.81,3a23.93,23.93,0,0,1-4.43,1.1l.16,3.18-2.21.08-.53-12c1.6-.07,2.83-.09,3.68,0a9.16,9.16,0,0,1,3.94.85,4.1,4.1,0,0,1,2.16,3.21A4.44,4.44,0,0,1,168.42,100.11Zm-2.2-.2V99.8c-.06-1.37-1.32-2.11-3.77-2.21-.34,0-.86,0-1.56,0l.2,4.47a29,29,0,0,0,3-.65C165.52,101,166.24,100.47,166.22,99.91Z" transform="translate(-124.45 -60.62)"/><path d="M177.29,107.21l-2.22.41a9.92,9.92,0,0,1-2.23.2c-1.67-.07-2.66-.13-3-.19,0-2.66-.08-6.59-.19-11.8q.59,0,7.1,0V98l-4.87,0,0,3,4.79-.21.08,2.21-4.85.2,0,2.22a6.39,6.39,0,0,0,.64,0A21.79,21.79,0,0,0,177,105Z" transform="translate(-124.45 -60.62)"/><path d="M187.88,108.06l-2.21.08-.18-4.4-4.66.43c0,1,.1,2.2.18,3.59l-2.21.08q-.35-6.28-.41-11.18l2.18,0c0,1.32.05,3.1.16,5.34l4.68-.43c-.1-2.05-.14-3.85-.14-5.39l2.18,0q0,2.36.18,6C187.78,105.71,187.87,107.69,187.88,108.06Z" transform="translate(-124.45 -60.62)"/><path d="M198,108.49a19.33,19.33,0,0,1-4.13.9,28.67,28.67,0,0,1-4.15,0L189.6,98l2.18,0,.14,9.4a17.07,17.07,0,0,0,5.42-.91Z" transform="translate(-124.45 -60.62)"/><path d="M206.22,108.46l-2.22.41a10.46,10.46,0,0,1-2.23.19c-1.67-.07-2.66-.13-3-.18q0-4-.2-11.8l7.1,0v2.2l-4.87,0,0,3,4.79-.2.08,2.2-4.84.2,0,2.23.64,0a22.75,22.75,0,0,0,4.33-.46Z" transform="translate(-124.45 -60.62)"/><path d="M223.28,109.74l-2.08.47q-.81-1.41-2.63-4.17t-2.64-4.2a29.1,29.1,0,0,0,.74,7.14l-2.15.46a40.21,40.21,0,0,1-.67-10.15c0-.49.05-1,.08-1.56,1.2.06,2,.08,2.44.09a33.67,33.67,0,0,0,2,3.77c.14.25,1.09,1.69,2.83,4.33q0-4-.29-7.28l2.17-.2A93.26,93.26,0,0,1,223.28,109.74Z" transform="translate(-124.45 -60.62)"/><path d="M235,111l-2.18.25a33.91,33.91,0,0,0-.8-4l-4.68.6-.7,3.24-2.2-.27,2.31-10.38a6.81,6.81,0,0,1,.18-.72L232,99c.56,2,1.13,4,1.71,6A40.12,40.12,0,0,1,235,111Zm-3.55-5.86c-.08-.25-.44-1.49-1.07-3.7l-1.7.26-.85,3.9Z" transform="translate(-124.45 -60.62)"/><path d="M245.55,110.54l-2.21.08c-.05-1-.11-2.45-.18-4.4l-4.66.43c0,1,.09,2.2.18,3.59l-2.21.08q-.34-6.28-.41-11.19l2.18,0c0,1.32,0,3.1.16,5.34l4.67-.43c-.09-2-.13-3.85-.13-5.39l2.18,0q0,2.36.17,6C245.45,108.19,245.53,110.17,245.55,110.54Z" transform="translate(-124.45 -60.62)"/><path d="M249.81,111.54l-2.21.08q-.33-6.06-.36-12l2.19,0Q249.45,100.56,249.81,111.54Z" transform="translate(-124.45 -60.62)"/><path d="M268.39,109.18c-.06,1.44-.94,2.45-2.63,3a12.26,12.26,0,0,1-4.32.48c-.79,0-1.75-.12-2.88-.26q-.12-3.93-.39-11.79a30.67,30.67,0,0,1,4.74-.56,5.86,5.86,0,0,1,2.87.81,2.64,2.64,0,0,1,1.46,2.5,3.45,3.45,0,0,1-1.35,2.38,3.51,3.51,0,0,1,1.88,1.27A3.22,3.22,0,0,1,268.39,109.18ZM265,103.24c0-.53-.7-.82-2.17-.89a14.05,14.05,0,0,0-2.44.15l.1,3a8.07,8.07,0,0,0,3.38-1.09C264.65,104,265,103.59,265,103.24Zm1.15,5.78c0-.87-.78-1.33-2.47-1.41a27.78,27.78,0,0,0-3.1.12c0,.18,0,.63.05,1.34a13,13,0,0,1,0,1.36l.59,0a13.93,13.93,0,0,0,2.83-.13C265.47,110.13,266.17,109.69,266.19,109Z" transform="translate(-124.45 -60.62)"/><path d="M282.83,106.62a6.58,6.58,0,0,1-2.47,4.94A7.48,7.48,0,0,1,275,113.4a5.32,5.32,0,0,1-4-2,6.12,6.12,0,0,1-1.39-4.33,6.62,6.62,0,0,1,2.47-4.86,7.25,7.25,0,0,1,5.19-1.92,5.5,5.5,0,0,1,4.09,2A6,6,0,0,1,282.83,106.62Zm-2.2-.07a4,4,0,0,0-.9-2.8,3.37,3.37,0,0,0-2.59-1.23,5,5,0,0,0-3.57,1.33,4.6,4.6,0,0,0-1.78,3.36,4,4,0,0,0,.84,2.81,3.34,3.34,0,0,0,2.56,1.19,5.35,5.35,0,0,0,3.7-1.28A4.5,4.5,0,0,0,280.63,106.55Z" transform="translate(-124.45 -60.62)"/><path d="M292.73,112.56a19.54,19.54,0,0,1-4.14.9,28.64,28.64,0,0,1-4.15.05L284.29,102l2.18,0,.15,9.4a17.12,17.12,0,0,0,5.42-.91Z" transform="translate(-124.45 -60.62)"/><path d="M309.72,109.94q-.09,2.15-3.53,3.61a11.06,11.06,0,0,1-3.95.83l-.1-2.19a10.11,10.11,0,0,0,2.73-.49,5,5,0,0,0,2.34-1.34.77.77,0,0,0,.21-.36c0-.35-.54-.6-1.67-.74-.29,0-1-.08-2.06-.12q-5-.23-4.88-2.94a3.53,3.53,0,0,1,1.87-2.75,11.84,11.84,0,0,1,3.24-1.4,12.38,12.38,0,0,1,3.64-.37,15.13,15.13,0,0,1,1.51.14l-.32,2.17c-.38,0-.77-.09-1.19-.11a8.49,8.49,0,0,0-5.91,1.58c-.34.29-.51.52-.52.7a.61.61,0,0,0,0,.14c.17.33.81.53,1.91.61,2.14.14,3.22.22,3.24.23a4.67,4.67,0,0,1,2.78,1.15A2.19,2.19,0,0,1,309.72,109.94Z" transform="translate(-124.45 -60.62)"/><path d="M320.94,114.73l-2.18.26a35.66,35.66,0,0,0-.8-4l-4.68.59-.71,3.25-2.19-.27,2.3-10.39c0-.09.08-.33.18-.71l5.06-.8q.85,3,1.72,6A43.34,43.34,0,0,1,320.94,114.73Zm-3.56-5.86c-.08-.25-.43-1.48-1.06-3.7l-1.7.27-.85,3.89Z" transform="translate(-124.45 -60.62)"/><path d="M332.25,113.67l-.66,2.08-7.15-2.25.1,2.28-2.21.08c-.1-2.51-.26-6.29-.49-11.32l2.17-.09.24,5.61,5.49-6.88,1.72,1.37-5.65,7.09Z" transform="translate(-124.45 -60.62)"/><path d="M341.9,105.46l-3.7.28.16,9.41-2.2,0-.15-9.26-3.17.24L332.7,104l9-.68Z" transform="translate(-124.45 -60.62)"/><path d="M351,114.68l-2.22.41a10.49,10.49,0,0,1-2.23.2c-1.67-.08-2.66-.14-2.95-.19,0-2.66-.08-6.6-.2-11.8l7.1,0v2.21l-4.87,0,0,3,4.78-.2.08,2.21-4.84.2,0,2.22.64,0a21.88,21.88,0,0,0,4.33-.46Z" transform="translate(-124.45 -60.62)"/><path d="M367.68,106.57l-3.7.28.16,9.41-2.2,0-.15-9.27-3.17.24-.14-2.17,9-.69Z" transform="translate(-124.45 -60.62)"/><path d="M378.41,116.25l-2.21.08-.18-4.4-4.65.43c0,1,.09,2.2.17,3.59l-2.2.08q-.36-6.28-.42-11.19l2.19,0q0,2,.15,5.34l4.68-.43c-.09-2-.14-3.85-.14-5.39l2.19,0q0,2.36.17,6C378.32,113.9,378.4,115.88,378.41,116.25Z" transform="translate(-124.45 -60.62)"/><path d="M387.77,116.26l-2.22.41a10.59,10.59,0,0,1-2.23.2c-1.68-.08-2.66-.14-3-.19,0-2.66-.08-6.6-.19-11.8l7.09,0v2.2l-4.87,0,.05,3,4.78-.2.08,2.21-4.84.2,0,2.22.64.05a22.61,22.61,0,0,0,4.33-.46Z" transform="translate(-124.45 -60.62)"/><path d="M405.6,116.83l-.66,2.08-7.15-2.26.09,2.28-2.2.08q-.15-3.77-.49-11.32l2.17-.08.24,5.6,5.48-6.88,1.73,1.37-5.65,7.09Z" transform="translate(-124.45 -60.62)"/><path d="M415.86,107.24l-4,3.43,0,8-2.2,0,0-8-4.8-3.73,1.35-1.74,4.58,3.57,3.64-3.12Z" transform="translate(-124.45 -60.62)"/><path d="M426.62,119.27l-2.17.26a36,36,0,0,0-.81-4l-4.68.59-.7,3.25-2.2-.27,2.31-10.39a6.91,6.91,0,0,1,.18-.71l5.06-.8c.56,2,1.14,4,1.71,6A40.64,40.64,0,0,1,426.62,119.27Zm-3.55-5.86c-.08-.25-.44-1.48-1.07-3.7l-1.69.27-.86,3.89Z" transform="translate(-124.45 -60.62)"/><path d="M438.94,108.92c-.07,1.66-1.93,3.22-5.56,4.68,0,.06.06.56.2,1.49l-2.15.29c0-.06-.16-1.13-.45-3.2q5.67-2.13,5.71-3.26v-.09a3.19,3.19,0,0,0-2.16-.62,6.43,6.43,0,0,0-4.56,1.46l-1.41-1.7a8.91,8.91,0,0,1,6.32-2,5.94,5.94,0,0,1,2.68.7A2.33,2.33,0,0,1,438.94,108.92ZM434,119.65l-2.23.1-.18-2.17,2.24-.1Z" transform="translate(-124.45 -60.62)"/><path d="M451.14,109.45c-.08,1.66-1.93,3.22-5.57,4.67,0,.07.07.56.21,1.49l-2.15.3c0-.07-.16-1.13-.45-3.21q5.67-2.13,5.71-3.25v-.1a3.27,3.27,0,0,0-2.16-.62,6.46,6.46,0,0,0-4.56,1.46l-1.41-1.69a9,9,0,0,1,6.32-2,6,6,0,0,1,2.68.71A2.32,2.32,0,0,1,451.14,109.45Zm-4.92,10.72-2.24.1-.18-2.17L446,118Z" transform="translate(-124.45 -60.62)"/><path d="M167.83,127.79q-.09,2.14-3.53,3.61a11.06,11.06,0,0,1-4,.83l-.1-2.19a10,10,0,0,0,2.73-.49,5,5,0,0,0,2.34-1.34.77.77,0,0,0,.21-.36c0-.35-.54-.59-1.67-.73-.29,0-1-.08-2.06-.13q-5-.21-4.88-2.94a3.54,3.54,0,0,1,1.87-2.75,12.15,12.15,0,0,1,3.24-1.4,12.38,12.38,0,0,1,3.64-.37,15.14,15.14,0,0,1,1.51.15l-.32,2.17a8.91,8.91,0,0,0-1.19-.11,8.49,8.49,0,0,0-5.91,1.58c-.34.28-.51.51-.52.69a.57.57,0,0,0,0,.14c.17.33.81.54,1.91.61q3.21.21,3.24.24a4.61,4.61,0,0,1,2.78,1.15A2.17,2.17,0,0,1,167.83,127.79Z" transform="translate(-124.45 -60.62)"/><path d="M182,126.24a6.62,6.62,0,0,1-2.46,4.94,7.57,7.57,0,0,1-5.34,1.84,5.29,5.29,0,0,1-4-2,6.08,6.08,0,0,1-1.4-4.33,6.66,6.66,0,0,1,2.47-4.86,7.25,7.25,0,0,1,5.19-1.92,5.49,5.49,0,0,1,4.09,2A6,6,0,0,1,182,126.24Zm-2.2-.07a3.93,3.93,0,0,0-.9-2.8,3.37,3.37,0,0,0-2.58-1.23,5,5,0,0,0-3.58,1.33,4.63,4.63,0,0,0-1.78,3.36,4,4,0,0,0,.84,2.81,3.32,3.32,0,0,0,2.57,1.18,5.25,5.25,0,0,0,3.69-1.27A4.5,4.5,0,0,0,179.79,126.17Z" transform="translate(-124.45 -60.62)"/><path d="M194.29,130.37l-.64,2.1-7.18-2.2.13,2.17-2.19.12-.56-12.07c1.67-.08,3-.11,3.87-.07q6.28.27,6.1,4.53-.1,2.43-4.19,4Zm-2.67-5.52q.09-2.05-3.77-2.22c-.3,0-.87,0-1.73,0l.25,5.13Q191.56,126.19,191.62,124.85Z" transform="translate(-124.45 -60.62)"/><path d="M206.72,130.9l-.64,2.1-7.17-2.19L199,133l-2.19.12L196.29,121c1.66-.09,3-.11,3.86-.07q6.28.27,6.1,4.52-.1,2.43-4.19,4Zm-2.67-5.51q.09-2.06-3.77-2.22c-.3,0-.87,0-1.73,0l.25,5.14Q204,126.73,204.05,125.39Z" transform="translate(-124.45 -60.62)"/><path d="M217.7,122.67l-4,3.44,0,8h-2.21l0-8-4.8-3.73,1.35-1.74,4.58,3.56,3.65-3.11Z" transform="translate(-124.45 -60.62)"/><path d="M234.81,131.69c-.06,1.44-.93,2.44-2.62,3a12.34,12.34,0,0,1-4.33.48c-.79,0-1.75-.12-2.87-.26q-.13-3.93-.4-11.79a30.88,30.88,0,0,1,4.75-.56,5.92,5.92,0,0,1,2.87.81,2.65,2.65,0,0,1,1.45,2.5,3.41,3.41,0,0,1-1.35,2.37,3.54,3.54,0,0,1,1.88,1.28A3.22,3.22,0,0,1,234.81,131.69Zm-3.35-5.94c0-.53-.7-.83-2.16-.89a14.16,14.16,0,0,0-2.45.15l.11,3a8,8,0,0,0,3.38-1.08C231.07,126.51,231.45,126.1,231.46,125.75Zm1.16,5.77c0-.86-.79-1.33-2.48-1.4a27.78,27.78,0,0,0-3.1.12c0,.18,0,.63.06,1.34,0,.55,0,1,0,1.35a4.65,4.65,0,0,0,.58,0,13.89,13.89,0,0,0,2.83-.13C231.89,132.64,232.59,132.2,232.62,131.52Z" transform="translate(-124.45 -60.62)"/><path d="M245.67,134.49l-2.21.08c0-1-.11-2.44-.18-4.39l-4.66.42c0,1,.09,2.2.18,3.6l-2.21.08q-.34-6.3-.41-11.19l2.18,0c0,1.32,0,3.1.16,5.33l4.68-.42c-.1-2.06-.14-3.85-.14-5.39l2.18,0q0,2.37.18,6C245.57,132.14,245.65,134.13,245.67,134.49Z" transform="translate(-124.45 -60.62)"/><path d="M257.26,136l-2.18.25a33.91,33.91,0,0,0-.8-4l-4.68.6-.7,3.24-2.2-.27L249,125.42a6.81,6.81,0,0,1,.18-.72l5.06-.79c.56,2,1.13,4,1.71,6A40.12,40.12,0,0,1,257.26,136Zm-3.55-5.87c-.08-.24-.44-1.48-1.07-3.69l-1.7.26-.85,3.9Z" transform="translate(-124.45 -60.62)"/><path d="M261.16,136l-2.21.08q-.33-6.06-.36-12l2.18,0Q260.78,125,261.16,136Z" transform="translate(-124.45 -60.62)"/><path d="M272.9,125.05l-4,3.43,0,8-2.2,0,0-8-4.8-3.73,1.35-1.74,4.58,3.57,3.64-3.12Z" transform="translate(-124.45 -60.62)"/><path d="M283.66,137.08l-2.17.26a36,36,0,0,0-.81-4L276,134l-.7,3.25-2.2-.27,2.31-10.39a6.29,6.29,0,0,1,.18-.71l5.06-.8c.56,2,1.14,4,1.71,6A40.64,40.64,0,0,1,283.66,137.08Zm-3.55-5.86c-.08-.25-.44-1.48-1.07-3.7l-1.69.27-.86,3.89Z" transform="translate(-124.45 -60.62)"/><path d="M306,138.33l-2,.83a40.38,40.38,0,0,1-2.3-7.15,1.74,1.74,0,0,0-.07.23,27.83,27.83,0,0,1-2.22,5.28l-1.81-.43a37,37,0,0,1-2-6.05,36.68,36.68,0,0,0-1.93,7.21l-2.15-.36A44,44,0,0,1,294.93,127l2.08.24a52.89,52.89,0,0,0,1.7,6.65,41.37,41.37,0,0,0,2-7.42l2.16,0A47.7,47.7,0,0,0,306,138.33Z" transform="translate(-124.45 -60.62)"/><path d="M317,138.51l-2.17.26a36,36,0,0,0-.81-4l-4.68.59-.7,3.25-2.2-.27L308.7,128a6.29,6.29,0,0,1,.18-.71l5.06-.8c.56,2,1.14,4,1.71,6A40.64,40.64,0,0,1,317,138.51Zm-3.55-5.86c-.08-.25-.44-1.48-1.07-3.7l-1.69.27-.86,3.89Z" transform="translate(-124.45 -60.62)"/><path d="M328.18,139l-2.18.26a36.12,36.12,0,0,0-.8-4l-4.68.6-.71,3.24-2.19-.27,2.3-10.39c0-.09.08-.32.18-.71l5.07-.8q.84,3,1.71,6A42,42,0,0,1,328.18,139Zm-3.55-5.86c-.09-.25-.44-1.48-1.07-3.7l-1.7.27-.85,3.89Z" transform="translate(-124.45 -60.62)"/><path d="M336.32,130.59l-4.88,0q0,1.71.12,3.48l3.66-.25.14,2.2-3.69.25c0,.71.09,1.79.17,3.24l-2.19.1c0-.51-.07-1.27-.12-2.3q-.27-5.64-.32-8.89l7.08-.06Z" transform="translate(-124.45 -60.62)"/><path d="M354.08,138.56l-.65,2.08-7.16-2.25.1,2.28-2.21.08c-.1-2.51-.26-6.29-.48-11.32l2.17-.09.24,5.61,5.48-6.88,1.72,1.37-5.65,7.09Z" transform="translate(-124.45 -60.62)"/><path d="M364.83,140.57l-2.17.26a36.08,36.08,0,0,0-.81-4l-4.68.6-.7,3.25-2.2-.27L356.58,130c0-.09.08-.33.18-.71l5.06-.8,1.71,6A40.64,40.64,0,0,1,364.83,140.57Zm-3.55-5.86c-.08-.25-.44-1.48-1.07-3.7l-1.69.27-.85,3.89Z" transform="translate(-124.45 -60.62)"/><path d="M377,138.22l-.64,2.1-7.17-2.19.12,2.16-2.19.12-.55-12.07c1.66-.08,3-.1,3.86-.06q6.29.27,6.1,4.52-.1,2.43-4.19,4Zm-2.67-5.51q.09-2.07-3.77-2.23h-1.73l.25,5.14C372.56,134.56,374.31,133.6,374.35,132.71Z" transform="translate(-124.45 -60.62)"/><path d="M388.5,136.48a4.52,4.52,0,0,1-2.43,3.93,8.47,8.47,0,0,1-4.71,1c-.59,0-1.44-.1-2.54-.24q-.18-4-.5-12a15.6,15.6,0,0,1,2.95-.05,7.47,7.47,0,0,1,5,2.34A6.57,6.57,0,0,1,388.5,136.48Zm-2.2-.08a4.42,4.42,0,0,0-1.7-3.54,5.69,5.69,0,0,0-3.68-1.54h-.21q.12,4.75.26,7.9l.41,0a6.81,6.81,0,0,0,3.14-.43A2.61,2.61,0,0,0,386.3,136.4Z" transform="translate(-124.45 -60.62)"/><path d="M402.93,135.73a6.56,6.56,0,0,1-2.46,5,7.51,7.51,0,0,1-5.33,1.83,5.28,5.28,0,0,1-4.05-2,6.08,6.08,0,0,1-1.39-4.33,6.66,6.66,0,0,1,2.47-4.87,7.22,7.22,0,0,1,5.19-1.92,5.47,5.47,0,0,1,4.08,1.95A6,6,0,0,1,402.93,135.73Zm-2.2-.06a3.91,3.91,0,0,0-.9-2.8,3.41,3.41,0,0,0-2.58-1.24,5.1,5.1,0,0,0-3.58,1.33,4.62,4.62,0,0,0-1.77,3.36,4,4,0,0,0,.84,2.81,3.31,3.31,0,0,0,2.56,1.19A5.26,5.26,0,0,0,399,139,4.42,4.42,0,0,0,400.73,135.67Z" transform="translate(-124.45 -60.62)"/><path d="M407.71,137.58l-2.2.1-.42-7.82,2.19-.12Zm.07,4.62-2.22-.1-.21-2.21,2.24.1Z" transform="translate(-124.45 -60.62)"/><path d="M413.31,137.82l-2.2.1-.42-7.82,2.2-.12Zm.08,4.62-2.22-.1-.22-2.21,2.24.1Z" transform="translate(-124.45 -60.62)"/><path class="cls-27" d="M183.1,334.87c-26.62-1.36-20.29-56.23-5.14-67s231.91-31.49,242.94-24.67c8.42,5.21,22.89,23.54,17.42,49.78-.49,2.31,44.7.55,43.89,3s-47.58,9-48.73,11.46a87.53,87.53,0,0,1-6.81,12.13S342.21,343,183.1,334.87Z" transform="translate(-124.45 -60.62)"/><path d="M202.22,287.72c0,1.16-.79,2.09-2.35,2.8a22,22,0,0,1-3.86,1.13l.26,2.79-1.94.16L193.4,284c1.41-.13,2.49-.19,3.24-.19a8.19,8.19,0,0,1,3.5.6,3.62,3.62,0,0,1,2,2.74A3.41,3.41,0,0,1,202.22,287.72Zm-1.94-.09,0-.1c-.1-1.2-1.23-1.8-3.4-1.8-.29,0-.75,0-1.37,0l.35,3.93a24.15,24.15,0,0,0,2.59-.69C199.7,288.59,200.31,288.13,200.28,287.63Z" transform="translate(-124.45 -60.62)"/><path d="M212.32,294.82l-1.9.31a33.24,33.24,0,0,0-.86-3.46l-4.1.7-.5,2.88L203,295.1l1.64-9.23c0-.08.05-.29.13-.64l4.42-.89c.58,1.73,1.15,3.46,1.74,5.2A37.07,37.07,0,0,1,212.32,294.82Zm-3.35-5c-.08-.22-.44-1.29-1.08-3.22l-1.48.3-.6,3.46Z" transform="translate(-124.45 -60.62)"/><path d="M223,292.29l-.48,1.88-6.39-1.66.18,1.9-1.92.19L213.4,284c1.46-.14,2.6-.21,3.4-.21q5.53,0,5.53,3.76c0,1.42-1.17,2.65-3.53,3.66Zm-2.55-4.75c0-1.21-1.14-1.81-3.4-1.81l-1.53,0,.42,4.51C218.89,289.25,220.4,288.33,220.4,287.54Z" transform="translate(-124.45 -60.62)"/><path d="M238.27,287.72c0,1.16-.79,2.09-2.35,2.8a22,22,0,0,1-3.86,1.13l.26,2.79-1.94.16L229.45,284c1.41-.13,2.49-.19,3.24-.19a8.19,8.19,0,0,1,3.5.6,3.62,3.62,0,0,1,2,2.74A3.41,3.41,0,0,1,238.27,287.72Zm-1.94-.09,0-.1c-.1-1.2-1.23-1.8-3.4-1.8-.29,0-.75,0-1.37,0l.35,3.93a24.15,24.15,0,0,0,2.59-.69C235.75,288.59,236.36,288.13,236.33,287.63Z" transform="translate(-124.45 -60.62)"/><path d="M247.07,294a16.76,16.76,0,0,1-3.61.94,25.33,25.33,0,0,1-3.65.21l-.57-10.1,1.93-.1.48,8.26a15,15,0,0,0,4.73-1Z" transform="translate(-124.45 -60.62)"/><path d="M254.27,293.64l-1.94.44a9.12,9.12,0,0,1-2,.26c-1.48,0-2.35,0-2.61,0-.12-2.34-.32-5.8-.62-10.38l6.24-.29.09,1.94-4.29.2.16,2.63,4.2-.36.15,1.94-4.25.36.1,1.95.57,0a19.49,19.49,0,0,0,3.79-.57Z" transform="translate(-124.45 -60.62)"/><path d="M264.22,294.82l-1.91.31a30.87,30.87,0,0,0-.86-3.46l-4.09.7-.5,2.88-1.94-.15,1.64-9.23c0-.08.05-.29.13-.64l4.42-.89q.86,2.6,1.73,5.2A36,36,0,0,1,264.22,294.82Zm-3.35-5c-.08-.22-.44-1.29-1.08-3.22l-1.48.3-.6,3.46Z" transform="translate(-124.45 -60.62)"/><path d="M274,291q0,1.89-3,3.31a9.83,9.83,0,0,1-3.44.88l-.17-1.93a8.46,8.46,0,0,0,2.38-.53,4.28,4.28,0,0,0,2-1.27.59.59,0,0,0,.17-.32c0-.31-.5-.5-1.49-.59-.27,0-.87,0-1.82,0q-4.41,0-4.41-2.4a3.11,3.11,0,0,1,1.54-2.49,10.49,10.49,0,0,1,6-1.82c.44,0,.89,0,1.34.07l-.21,1.92c-.33,0-.68-.05-1.05-.05a7.47,7.47,0,0,0-5.14,1.62c-.29.26-.43.47-.43.63a.37.37,0,0,0,0,.12c.16.29.72.44,1.7.46l2.86.09a4.1,4.1,0,0,1,2.49.91A1.92,1.92,0,0,1,274,291Z" transform="translate(-124.45 -60.62)"/><path d="M282,293.64l-1.94.44a9.12,9.12,0,0,1-2,.26c-1.47,0-2.34,0-2.6,0-.12-2.34-.32-5.8-.62-10.38l6.24-.29.09,1.94-4.29.2.16,2.63,4.2-.36.15,1.94-4.25.36.1,1.95.57,0a19.49,19.49,0,0,0,3.79-.57Z" transform="translate(-124.45 -60.62)"/><path d="M297.44,291.92a2.91,2.91,0,0,1-2.2,2.76,10.74,10.74,0,0,1-3.79.59c-.7,0-1.54,0-2.54-.12q-.26-3.45-.79-10.36a26,26,0,0,1,4.15-.67,5.18,5.18,0,0,1,2.56.6,2.33,2.33,0,0,1,1.37,2.14,3,3,0,0,1-1.1,2.15,3.13,3.13,0,0,1,1.71,1A2.88,2.88,0,0,1,297.44,291.92Zm-3.18-5.09c0-.47-.64-.7-1.93-.7a12.59,12.59,0,0,0-2.15.22l.21,2.67a6.9,6.9,0,0,0,2.93-1.08C294,287.51,294.26,287.14,294.26,286.83Zm1.24,5c0-.76-.75-1.14-2.23-1.14a27.27,27.27,0,0,0-2.73.22c0,.16,0,.55.1,1.18s.07.89.07,1.19l.52,0a12,12,0,0,0,2.48-.22C294.9,292.87,295.5,292.45,295.5,291.86Z" transform="translate(-124.45 -60.62)"/><path d="M307.69,294.82l-1.9.31a30.87,30.87,0,0,0-.86-3.46l-4.09.7-.5,2.88-1.94-.15,1.63-9.23c0-.08.06-.29.13-.64l4.43-.89q.86,2.6,1.73,5.2A37.07,37.07,0,0,1,307.69,294.82Zm-3.34-5c-.08-.22-.44-1.29-1.08-3.22l-1.49.3-.6,3.46Z" transform="translate(-124.45 -60.62)"/><path d="M316.23,285.87l-3.24.39.5,8.27-1.94.1-.48-8.14-2.78.33-.2-1.91,7.92-1Z" transform="translate(-124.45 -60.62)"/><path d="M326.64,294.82l-1.9.31a30.87,30.87,0,0,0-.86-3.46l-4.09.7-.5,2.88-1.94-.15,1.63-9.23c0-.08.06-.29.13-.64l4.43-.89q.85,2.6,1.73,5.2A37.07,37.07,0,0,1,326.64,294.82Zm-3.34-5c-.08-.22-.44-1.29-1.08-3.22l-1.49.3-.6,3.46Z" transform="translate(-124.45 -60.62)"/><path d="M336.35,290.33a4,4,0,0,1-2,3.55,7.43,7.43,0,0,1-4.1,1.08q-.78,0-2.25-.12c-.2-2.37-.5-5.88-.89-10.55a14.35,14.35,0,0,1,2.59-.15,6.61,6.61,0,0,1,4.5,1.87A5.73,5.73,0,0,1,336.35,290.33Zm-1.94,0a3.87,3.87,0,0,0-1.63-3,5.06,5.06,0,0,0-3.29-1.22h-.19c.2,2.79.37,5.1.53,6.95h.36a6,6,0,0,0,2.75-.5A2.3,2.3,0,0,0,334.41,290.34Z" transform="translate(-124.45 -60.62)"/><path d="M349,289.13a5.79,5.79,0,0,1-2,4.44,6.63,6.63,0,0,1-4.62,1.82,4.67,4.67,0,0,1-3.63-1.58,5.37,5.37,0,0,1-1.39-3.76,5.85,5.85,0,0,1,2-4.37,6.34,6.34,0,0,1,4.49-1.89,4.84,4.84,0,0,1,3.67,1.56A5.31,5.31,0,0,1,349,289.13Zm-1.93,0a3.48,3.48,0,0,0-.9-2.43,3,3,0,0,0-2.32-1,4.47,4.47,0,0,0-3.1,1.31,4.07,4.07,0,0,0-1.44,3,3.54,3.54,0,0,0,.85,2.44,2.94,2.94,0,0,0,2.3.95,4.64,4.64,0,0,0,3.2-1.26A4,4,0,0,0,347.09,289.15Z" transform="translate(-124.45 -60.62)"/><path d="M365,293.46l-.5,1.86-6.38-1.72.17,2-1.94.15c-.18-2.2-.47-5.52-.86-9.94l1.91-.16.43,4.92,4.56-6.25,1.57,1.13-4.71,6.46Z" transform="translate(-124.45 -60.62)"/><path d="M368.09,294.7l-1.93.16q-.53-5.33-.77-10.57l1.92-.1C367.34,284.77,367.6,288.28,368.09,294.7Z" transform="translate(-124.45 -60.62)"/><path d="M384.8,291.32c0,1.64-.53,2.59-1.58,2.85a16,16,0,0,1-3.79.33,4.56,4.56,0,0,1-3.09-.77c-.54-.51-.8-1.52-.8-3a35.16,35.16,0,0,1,.51-4.91c.07-.42.16-1,.26-1.88l1.92.05a18,18,0,0,1-.26,2.1c-.13.87-.27,1.74-.39,2.62a18.29,18.29,0,0,0-.22,2.62c0,.5.06.81.18.92a2.82,2.82,0,0,0,1.74.35l.46,0,.34,0c.22,0,.69,0,1.41-.08a6,6,0,0,0,1.23-.16,1.62,1.62,0,0,0,.18-.94,20.12,20.12,0,0,0-.43-3.63c-.43-2.16-.65-3.36-.69-3.57l1.92-.24c0,.18.12.74.31,1.68A31.68,31.68,0,0,1,384.8,291.32Z" transform="translate(-124.45 -60.62)"/><path d="M395.09,291q0,1.89-3,3.31a9.83,9.83,0,0,1-3.44.88l-.18-1.93a8.45,8.45,0,0,0,2.39-.53,4.19,4.19,0,0,0,2-1.27.55.55,0,0,0,.18-.32c0-.31-.5-.5-1.5-.59-.26,0-.87,0-1.81,0q-4.41,0-4.41-2.4a3.11,3.11,0,0,1,1.54-2.49,10.49,10.49,0,0,1,6-1.82c.44,0,.89,0,1.33.07l-.2,1.92c-.33,0-.68-.05-1.05-.05a7.46,7.46,0,0,0-5.14,1.62c-.29.26-.43.47-.43.63a.22.22,0,0,0,0,.12c.16.29.72.44,1.69.46l2.87.09a4,4,0,0,1,2.48.91A1.9,1.9,0,0,1,395.09,291Z" transform="translate(-124.45 -60.62)"/><path d="M409.2,295.08l-1.74.8a35.06,35.06,0,0,1-2.3-6.2l-.05.2a25.21,25.21,0,0,1-1.75,4.74l-1.62-.31a34.16,34.16,0,0,1-1.95-5.25,32.16,32.16,0,0,0-1.42,6.41l-1.91-.24a38.81,38.81,0,0,1,2.57-9.72l1.84.14a46.06,46.06,0,0,0,1.75,5.78,35.66,35.66,0,0,0,1.49-6.61l1.9,0A42.46,42.46,0,0,0,409.2,295.08Z" transform="translate(-124.45 -60.62)"/><path d="M416.82,293.64l-1.94.44a9.12,9.12,0,0,1-1.95.26c-1.48,0-2.35,0-2.61,0-.12-2.34-.32-5.8-.62-10.38l6.24-.29.09,1.94-4.29.2.16,2.63,4.2-.36.15,1.94-4.25.36.1,1.95.57,0a19.49,19.49,0,0,0,3.79-.57Z" transform="translate(-124.45 -60.62)"/><path d="M249.6,315.9l-1.91.3a31.41,31.41,0,0,0-.86-3.46l-4.09.7-.5,2.88-1.94-.15,1.64-9.23c0-.08.05-.29.13-.63l4.42-.89c.57,1.72,1.15,3.46,1.73,5.19A37,37,0,0,1,249.6,315.9Zm-3.35-5q-.12-.31-1.08-3.21l-1.48.3-.61,3.46Z" transform="translate(-124.45 -60.62)"/><path d="M259.49,315.9l-1.9.3a31.41,31.41,0,0,0-.86-3.46l-4.09.7-.5,2.88-1.94-.15,1.63-9.23c0-.08.06-.29.13-.63l4.43-.89,1.73,5.19A36.82,36.82,0,0,1,259.49,315.9Zm-3.35-5c-.08-.21-.43-1.28-1.07-3.21l-1.49.3-.6,3.46Z" transform="translate(-124.45 -60.62)"/><path d="M269.4,314.54l-.49,1.85-6.38-1.71.17,2-1.94.16c-.18-2.21-.47-5.52-.86-9.95l1.91-.15.42,4.92,4.57-6.26,1.57,1.14L263.66,313Z" transform="translate(-124.45 -60.62)"/><path d="M278.34,315.05l-1.94.16c-.07-.86-.18-2.14-.32-3.86l-4.09.55q.11,1.32.3,3.15l-1.94.16q-.56-5.52-.79-9.83l1.92-.1c0,1.16.16,2.73.34,4.69l4.1-.55c-.16-1.81-.27-3.38-.32-4.74l1.92-.1c.06,1.38.19,3.13.37,5.24C278.17,313,278.32,314.73,278.34,315.05Z" transform="translate(-124.45 -60.62)"/><path d="M282.13,315.77l-1.94.16c-.35-3.54-.6-7.07-.77-10.57l1.92-.1Q281.4,306.15,282.13,315.77Z" transform="translate(-124.45 -60.62)"/><path d="M293.66,313.37l-.49,1.87-6.39-1.66.19,1.9-1.93.19-.94-10.6c1.46-.13,2.6-.2,3.4-.2q5.53,0,5.54,3.75,0,2.14-3.53,3.67Zm-2.56-4.75c0-1.21-1.13-1.81-3.4-1.81-.26,0-.77,0-1.52.05l.41,4.51Q291.11,309.79,291.1,308.62Z" transform="translate(-124.45 -60.62)"/><path d="M309.64,314.54l-.5,1.85-6.38-1.71.17,2-1.93.16c-.19-2.21-.47-5.52-.86-9.95l1.9-.15.43,4.92L307,305.4l1.57,1.14L303.9,313Z" transform="translate(-124.45 -60.62)"/><path d="M318.31,305.71l-3.41,3.18.33,7-1.94.06L313,308.9l-4.36-3.1,1.11-1.58,4.17,3L317,304.3Z" transform="translate(-124.45 -60.62)"/><path d="M328.23,315.9l-1.9.3a33.87,33.87,0,0,0-.86-3.46l-4.1.7-.49,2.88-1.95-.15,1.64-9.23c0-.08.05-.29.13-.63l4.43-.89c.57,1.72,1.14,3.46,1.73,5.19A36.82,36.82,0,0,1,328.23,315.9Zm-3.35-5q-.12-.31-1.08-3.21l-1.48.3-.6,3.46Z" transform="translate(-124.45 -60.62)"/><path d="M343.27,315.05l-1.94.16c-.07-.86-.18-2.14-.32-3.86l-4.09.55q.1,1.32.3,3.15l-1.94.16q-.55-5.52-.79-9.83l1.92-.1c0,1.16.16,2.73.34,4.69l4.1-.55c-.16-1.81-.27-3.38-.32-4.74l1.92-.1c.07,1.38.19,3.13.37,5.24C343.1,313,343.25,314.73,343.27,315.05Z" transform="translate(-124.45 -60.62)"/><path d="M354.08,306.33c0,1.46-1.58,2.9-4.72,4.32,0,.05.08.49.24,1.3l-1.89.34-.51-2.8q4.91-2.08,4.9-3.08v-.09a2.87,2.87,0,0,0-1.92-.46,5.72,5.72,0,0,0-4,1.46l-1.3-1.44a7.89,7.89,0,0,1,5.49-2,5.28,5.28,0,0,1,2.38.52A2,2,0,0,1,354.08,306.33ZM350.16,316l-2,.17-.24-1.91,2-.17Z" transform="translate(-124.45 -60.62)"/><path d="M364.83,306.33q0,2.19-4.72,4.32c0,.05.08.49.24,1.3l-1.88.34c0-.05-.19-1-.52-2.8q4.91-2.08,4.91-3.08l0-.09a2.87,2.87,0,0,0-1.92-.46,5.68,5.68,0,0,0-4,1.46l-1.31-1.44a7.89,7.89,0,0,1,5.49-2,5.28,5.28,0,0,1,2.38.52A2,2,0,0,1,364.83,306.33ZM360.91,316l-2,.17-.24-1.91,2-.17Z" transform="translate(-124.45 -60.62)"/><path d="M375.58,306.33q0,2.19-4.71,4.32c0,.05.07.49.24,1.3l-1.89.34c0-.05-.18-1-.52-2.8q4.91-2.08,4.91-3.08l0-.09a2.87,2.87,0,0,0-1.92-.46,5.68,5.68,0,0,0-4,1.46l-1.3-1.44a7.88,7.88,0,0,1,5.48-2,5.32,5.32,0,0,1,2.39.52A2,2,0,0,1,375.58,306.33ZM371.67,316l-2,.17-.24-1.91,2-.17Z" transform="translate(-124.45 -60.62)"/></svg>